<svg xmlns="http://www.w3.org/2000/svg" xmlns:xlink="http://www.w3.org/1999/xlink" contentStyleType="text/css" height="532px" preserveAspectRatio="none" style="width:1184px;height:532px;background:#FFFFFF;" version="1.1" viewBox="0 0 1184 532" width="1184px" zoomAndPan="magnify"><defs/><g><rect fill="#FFFFFF" height="347.2012" style="stroke:#181818;stroke-width:1.0;" width="10" x="32.1758" y="93.6211"/><rect fill="#FFFFFF" height="314.9102" style="stroke:#181818;stroke-width:1.0;" width="10" x="383.1616" y="116.9121"/><rect fill="#FFFFFF" height="226.0371" style="stroke:#181818;stroke-width:1.0;" width="10" x="645.1133" y="174.4941"/><rect fill="#FFFFFF" height="156.4551" style="stroke:#181818;stroke-width:1.0;" width="10" x="876.7485" y="205.7852"/><rect fill="#FFFFFF" height="31.291" style="stroke:#181818;stroke-width:1.0;" width="10" x="1057.1602" y="299.6582"/><rect fill="#FFFFFF" height="31.291" style="stroke:#181818;stroke-width:1.0;" width="10" x="1125.4116" y="237.0762"/><rect fill="none" height="238.3281" style="stroke:#000000;stroke-width:1.5;" width="852.0151" x="326.0308" y="131.9121"/><line style="stroke:#181818;stroke-width:0.5;stroke-dasharray:5.0,5.0;" x1="37" x2="37" y1="83.6211" y2="449.8223"/><line style="stroke:#181818;stroke-width:0.5;stroke-dasharray:5.0,5.0;" x1="388.0308" x2="388.0308" y1="83.6211" y2="449.8223"/><line style="stroke:#181818;stroke-width:0.5;stroke-dasharray:5.0,5.0;" x1="649.9858" x2="649.9858" y1="83.6211" y2="449.8223"/><line style="stroke:#181818;stroke-width:0.5;stroke-dasharray:5.0,5.0;" x1="881.5625" x2="881.5625" y1="83.6211" y2="449.8223"/><line style="stroke:#181818;stroke-width:0.5;stroke-dasharray:5.0,5.0;" x1="1061.543" x2="1061.543" y1="83.6211" y2="449.8223"/><line style="stroke:#181818;stroke-width:0.5;stroke-dasharray:5.0,5.0;" x1="1129.7773" x2="1129.7773" y1="83.6211" y2="449.8223"/><text fill="#000000" font-family="sans-serif" font-size="14" lengthAdjust="spacing" textLength="58.3516" x="5" y="80.1074">Utilizador</text><ellipse cx="37.1758" cy="13.5" fill="#E2E2F0" rx="8" ry="8" style="stroke:#181818;stroke-width:0.5;"/><path d="M37.1758,21.5 L37.1758,48.5 M24.1758,29.5 L50.1758,29.5 M37.1758,48.5 L24.1758,63.5 M37.1758,48.5 L50.1758,63.5 " fill="none" style="stroke:#181818;stroke-width:0.5;"/><text fill="#000000" font-family="sans-serif" font-size="14" lengthAdjust="spacing" textLength="58.3516" x="5" y="463.9297">Utilizador</text><ellipse cx="37.1758" cy="475.9434" fill="#E2E2F0" rx="8" ry="8" style="stroke:#181818;stroke-width:0.5;"/><path d="M37.1758,483.9434 L37.1758,510.9434 M24.1758,491.9434 L50.1758,491.9434 M37.1758,510.9434 L24.1758,525.9434 M37.1758,510.9434 L50.1758,525.9434 " fill="none" style="stroke:#181818;stroke-width:0.5;"/><rect fill="#E2E2F0" height="32.6211" rx="2.5" ry="2.5" style="stroke:#181818;stroke-width:0.5;" width="104.2617" x="336.0308" y="50"/><text fill="#000000" font-family="sans-serif" font-size="14" lengthAdjust="spacing" textLength="90.2617" x="343.0308" y="72.1074">ChatController</text><rect fill="#E2E2F0" height="32.6211" rx="2.5" ry="2.5" style="stroke:#181818;stroke-width:0.5;" width="104.2617" x="336.0308" y="448.8223"/><text fill="#000000" font-family="sans-serif" font-size="14" lengthAdjust="spacing" textLength="90.2617" x="343.0308" y="470.9297">ChatController</text><rect fill="#E2E2F0" height="32.6211" rx="2.5" ry="2.5" style="stroke:#181818;stroke-width:0.5;" width="90.2549" x="604.9858" y="50"/><text fill="#000000" font-family="sans-serif" font-size="14" lengthAdjust="spacing" textLength="76.2549" x="611.9858" y="72.1074">ChatService</text><rect fill="#E2E2F0" height="32.6211" rx="2.5" ry="2.5" style="stroke:#181818;stroke-width:0.5;" width="90.2549" x="604.9858" y="448.8223"/><text fill="#000000" font-family="sans-serif" font-size="14" lengthAdjust="spacing" textLength="76.2549" x="611.9858" y="470.9297">ChatService</text><rect fill="#E2E2F0" height="32.6211" rx="2.5" ry="2.5" style="stroke:#181818;stroke-width:0.5;" width="72.3721" x="845.5625" y="50"/><text fill="#000000" font-family="sans-serif" font-size="14" lengthAdjust="spacing" textLength="58.3721" x="852.5625" y="72.1074">XAdapter</text><rect fill="#E2E2F0" height="32.6211" rx="2.5" ry="2.5" style="stroke:#181818;stroke-width:0.5;" width="72.3721" x="845.5625" y="448.8223"/><text fill="#000000" font-family="sans-serif" font-size="14" lengthAdjust="spacing" textLength="58.3721" x="852.5625" y="470.9297">XAdapter</text><rect fill="#E2E2F0" height="32.6211" rx="2.5" ry="2.5" style="stroke:#181818;stroke-width:0.5;" width="41.2344" x="1041.543" y="50"/><text fill="#000000" font-family="sans-serif" font-size="14" lengthAdjust="spacing" textLength="27.2344" x="1048.543" y="72.1074">LLM</text><rect fill="#E2E2F0" height="32.6211" rx="2.5" ry="2.5" style="stroke:#181818;stroke-width:0.5;" width="41.2344" x="1041.543" y="448.8223"/><text fill="#000000" font-family="sans-serif" font-size="14" lengthAdjust="spacing" textLength="27.2344" x="1048.543" y="470.9297">LLM</text><text fill="#000000" font-family="sans-serif" font-size="14" lengthAdjust="spacing" textLength="69.2686" x="1092.7773" y="80.1074">XDatabase</text><path d="M1112.4116,29 C1112.4116,19 1130.4116,19 1130.4116,19 C1130.4116,19 1148.4116,19 1148.4116,29 L1148.4116,55 C1148.4116,65 1130.4116,65 1130.4116,65 C1130.4116,65 1112.4116,65 1112.4116,55 L1112.4116,29 " fill="#E2E2F0" style="stroke:#181818;stroke-width:1.5;"/><path d="M1112.4116,29 C1112.4116,39 1130.4116,39 1130.4116,39 C1130.4116,39 1148.4116,39 1148.4116,29 " fill="none" style="stroke:#181818;stroke-width:1.5;"/><text fill="#000000" font-family="sans-serif" font-size="14" lengthAdjust="spacing" textLength="69.2686" x="1092.7773" y="463.9297">XDatabase</text><path d="M1112.4116,477.4434 C1112.4116,467.4434 1130.4116,467.4434 1130.4116,467.4434 C1130.4116,467.4434 1148.4116,467.4434 1148.4116,477.4434 L1148.4116,503.4434 C1148.4116,513.4434 1130.4116,513.4434 1130.4116,513.4434 C1130.4116,513.4434 1112.4116,513.4434 1112.4116,503.4434 L1112.4116,477.4434 " fill="#E2E2F0" style="stroke:#181818;stroke-width:1.5;"/><path d="M1112.4116,477.4434 C1112.4116,487.4434 1130.4116,487.4434 1130.4116,487.4434 C1130.4116,487.4434 1148.4116,487.4434 1148.4116,477.4434 " fill="none" style="stroke:#181818;stroke-width:1.5;"/><rect fill="#FFFFFF" height="347.2012" style="stroke:#181818;stroke-width:1.0;" width="10" x="32.1758" y="93.6211"/><rect fill="#FFFFFF" height="314.9102" style="stroke:#181818;stroke-width:1.0;" width="10" x="383.1616" y="116.9121"/><rect fill="#FFFFFF" height="226.0371" style="stroke:#181818;stroke-width:1.0;" width="10" x="645.1133" y="174.4941"/><rect fill="#FFFFFF" height="156.4551" style="stroke:#181818;stroke-width:1.0;" width="10" x="876.7485" y="205.7852"/><rect fill="#FFFFFF" height="31.291" style="stroke:#181818;stroke-width:1.0;" width="10" x="1057.1602" y="299.6582"/><rect fill="#FFFFFF" height="31.291" style="stroke:#181818;stroke-width:1.0;" width="10" x="1125.4116" y="237.0762"/><polygon fill="#181818" points="371.1616,112.9121,381.1616,116.9121,371.1616,120.9121,375.1616,116.9121" style="stroke:#181818;stroke-width:1.0;"/><line style="stroke:#181818;stroke-width:1.0;" x1="42.1758" x2="377.1616" y1="116.9121" y2="116.9121"/><text fill="#000000" font-family="sans-serif" font-size="13" font-weight="bold" lengthAdjust="spacing" textLength="7.23" x="49.1758" y="111.6494">1</text><text fill="#000000" font-family="sans-serif" font-size="13" lengthAdjust="spacing" textLength="310.7559" x="60.4058" y="111.6494">GET: /chat/make-question?question?&lt;question body&gt;</text><path d="M326.0308,131.9121 L398.4653,131.9121 L398.4653,141.2031 L388.4653,151.2031 L326.0308,151.2031 L326.0308,131.9121 " fill="#EEEEEE" style="stroke:#000000;stroke-width:1.5;"/><rect fill="none" height="238.3281" style="stroke:#000000;stroke-width:1.5;" width="852.0151" x="326.0308" y="131.9121"/><text fill="#000000" font-family="sans-serif" font-size="13" font-weight="bold" lengthAdjust="spacing" textLength="27.4346" x="341.0308" y="146.9404">loop</text><text fill="#000000" font-family="sans-serif" font-size="11" font-weight="bold" lengthAdjust="spacing" textLength="246.3774" x="413.4653" y="145.7822">[Para Todas As Bases De Dados Selecionadas]</text><polygon fill="#181818" points="633.1133,170.4941,643.1133,174.4941,633.1133,178.4941,637.1133,174.4941" style="stroke:#181818;stroke-width:1.0;"/><line style="stroke:#181818;stroke-width:1.0;" x1="393.1616" x2="639.1133" y1="174.4941" y2="174.4941"/><text fill="#000000" font-family="sans-serif" font-size="13" font-weight="bold" lengthAdjust="spacing" textLength="7.23" x="400.1616" y="169.2314">2</text><text fill="#000000" font-family="sans-serif" font-size="13" lengthAdjust="spacing" textLength="88.8926" x="411.3916" y="169.2314">Envia Pergunta</text><polygon fill="#181818" points="864.7485,201.7852,874.7485,205.7852,864.7485,209.7852,868.7485,205.7852" style="stroke:#181818;stroke-width:1.0;"/><line style="stroke:#181818;stroke-width:1.0;" x1="655.1133" x2="870.7485" y1="205.7852" y2="205.7852"/><text fill="#000000" font-family="sans-serif" font-size="13" font-weight="bold" lengthAdjust="spacing" textLength="7.23" x="662.1133" y="200.5225">3</text><text fill="#000000" font-family="sans-serif" font-size="13" lengthAdjust="spacing" textLength="88.8926" x="673.3433" y="200.5225">Envia Pergunta</text><polygon fill="#181818" points="1113.4116,233.0762,1123.4116,237.0762,1113.4116,241.0762,1117.4116,237.0762" style="stroke:#181818;stroke-width:1.0;"/><line style="stroke:#181818;stroke-width:1.0;" x1="886.7485" x2="1119.4116" y1="237.0762" y2="237.0762"/><text fill="#000000" font-family="sans-serif" font-size="13" font-weight="bold" lengthAdjust="spacing" textLength="7.23" x="893.7485" y="231.8135">4</text><text fill="#000000" font-family="sans-serif" font-size="13" lengthAdjust="spacing" textLength="95.4053" x="904.9785" y="231.8135">Query{pergunta}</text><polygon fill="#181818" points="897.7485,264.3672,887.7485,268.3672,897.7485,272.3672,893.7485,268.3672" style="stroke:#181818;stroke-width:1.0;"/><line style="stroke:#181818;stroke-width:1.0;stroke-dasharray:2.0,2.0;" x1="891.7485" x2="1129.4116" y1="268.3672" y2="268.3672"/><text fill="#000000" font-family="sans-serif" font-size="13" font-weight="bold" lengthAdjust="spacing" textLength="7.23" x="903.7485" y="263.1045">5</text><text fill="#000000" font-family="sans-serif" font-size="13" lengthAdjust="spacing" textLength="104.0508" x="914.9785" y="263.1045">Resultados Query</text><polygon fill="#181818" points="1045.1602,295.6582,1055.1602,299.6582,1045.1602,303.6582,1049.1602,299.6582" style="stroke:#181818;stroke-width:1.0;"/><line style="stroke:#181818;stroke-width:1.0;" x1="886.7485" x2="1051.1602" y1="299.6582" y2="299.6582"/><text fill="#000000" font-family="sans-serif" font-size="13" font-weight="bold" lengthAdjust="spacing" textLength="7.23" x="893.7485" y="294.3955">6</text><text fill="#000000" font-family="sans-serif" font-size="13" lengthAdjust="spacing" textLength="140.1816" x="904.9785" y="294.3955">Envia Resultados Query</text><polygon fill="#181818" points="897.7485,326.9492,887.7485,330.9492,897.7485,334.9492,893.7485,330.9492" style="stroke:#181818;stroke-width:1.0;"/><line style="stroke:#181818;stroke-width:1.0;stroke-dasharray:2.0,2.0;" x1="891.7485" x2="1061.1602" y1="330.9492" y2="330.9492"/><text fill="#000000" font-family="sans-serif" font-size="13" font-weight="bold" lengthAdjust="spacing" textLength="7.23" x="903.7485" y="325.6865">7</text><text fill="#000000" font-family="sans-serif" font-size="13" lengthAdjust="spacing" textLength="121.3926" x="914.9785" y="325.6865">Resposta Formatada</text><polygon fill="#181818" points="666.1133,358.2402,656.1133,362.2402,666.1133,366.2402,662.1133,362.2402" style="stroke:#181818;stroke-width:1.0;"/><line style="stroke:#181818;stroke-width:1.0;stroke-dasharray:2.0,2.0;" x1="660.1133" x2="880.7485" y1="362.2402" y2="362.2402"/><text fill="#000000" font-family="sans-serif" font-size="13" font-weight="bold" lengthAdjust="spacing" textLength="7.23" x="672.1133" y="356.9775">8</text><text fill="#000000" font-family="sans-serif" font-size="13" lengthAdjust="spacing" textLength="186.4053" x="683.3433" y="356.9775">Resposta Formatada E M&#233;tricas</text><polygon fill="#181818" points="404.1616,396.5313,394.1616,400.5313,404.1616,404.5313,400.1616,400.5313" style="stroke:#181818;stroke-width:1.0;"/><line style="stroke:#181818;stroke-width:1.0;stroke-dasharray:2.0,2.0;" x1="398.1616" x2="649.1133" y1="400.5313" y2="400.5313"/><text fill="#000000" font-family="sans-serif" font-size="13" font-weight="bold" lengthAdjust="spacing" textLength="7.23" x="410.1616" y="395.2686">9</text><text fill="#000000" font-family="sans-serif" font-size="13" lengthAdjust="spacing" textLength="216.7217" x="421.3916" y="395.2686">Resposta(s) Formatada(s) E M&#233;tricas</text><polygon fill="#181818" points="53.1758,427.8223,43.1758,431.8223,53.1758,435.8223,49.1758,431.8223" style="stroke:#181818;stroke-width:1.0;"/><line style="stroke:#181818;stroke-width:1.0;stroke-dasharray:2.0,2.0;" x1="47.1758" x2="387.1616" y1="431.8223" y2="431.8223"/><text fill="#000000" font-family="sans-serif" font-size="13" font-weight="bold" lengthAdjust="spacing" textLength="14.46" x="59.1758" y="426.5596">10</text><text fill="#000000" font-family="sans-serif" font-size="13" lengthAdjust="spacing" textLength="216.7217" x="77.6357" y="426.5596">Resposta(s) Formatada(s) E M&#233;tricas</text><!--SRC=[dL9BJiCm4Dtx5AEkO55rNw6YqXOshLHeaTXEun5OE76m9nK5SI3EmSLmViuFMB29FF7xpBmnPcoIB3wG5G8ZDXP6zwoqUaDfx0ZGGURyNOgMLQHIJ1X6YoVaXKdO6gsf14MTNqFuZknHHHImLTq5FimbfbmflbP55x9URufRhMCXaV60ZZnnMHrBPbqL4waZCfL3v1yOpthDmXHkLlifJFBVanYVQVoIaMDbaijmkAXFS33oD6k4UuCBRKmAMxG8UoDzCtC7LxuL1qk2fS_KmOuqHLu9_RKGlLwgxgfuV6khvAWGjcGViuInwrk7MAhK72zHP_S7FyGh0ZWdrj5vvcr6zlIULioF5hN9jy6FkxPtv3BDnRo5Zf3q8x_bxLSQ-XtG0pbVlCYXGyFKE4QuDZRs-XBRbWMhCHkaF6J32ZPVdsnLvBVKRZxaHec4Ojlz_Btwy8dL3cVkl379YrzyElljFvBSeNZC_zDjfBu1]--></g></svg>