<svg xmlns="http://www.w3.org/2000/svg" xmlns:xlink="http://www.w3.org/1999/xlink" contentStyleType="text/css" height="739px" preserveAspectRatio="none" style="width:432px;height:739px;background:#FFFFFF;" version="1.1" viewBox="0 0 432 739" width="432px" zoomAndPan="magnify"><defs/><g><!--cluster RAG SYSTEM--><g id="cluster_RAG SYSTEM"><path d="M110.5,6.0137 L204.0654,6.0137 A3.75,3.75 0 0 1 206.5654,8.5137 L213.5654,30.6348 L422.5,30.6348 A2.5,2.5 0 0 1 425,33.1348 L425,729.5137 A2.5,2.5 0 0 1 422.5,732.0137 L110.5,732.0137 A2.5,2.5 0 0 1 108,729.5137 L108,8.5137 A2.5,2.5 0 0 1 110.5,6.0137 " fill="none" style="stroke:#000000;stroke-width:1.5;"/><line style="stroke:#000000;stroke-width:1.5;" x1="108" x2="213.5654" y1="30.6348" y2="30.6348"/><text fill="#000000" font-family="sans-serif" font-size="14" font-weight="bold" lengthAdjust="spacing" textLength="92.5654" x="112" y="23.1211">RAG SYSTEM</text></g><g id="elem_UC1"><ellipse cx="266.6337" cy="65.9404" fill="#F1F1F1" rx="102.6337" ry="22.9267" style="stroke:#181818;stroke-width:0.5;"/><text fill="#000000" font-family="sans-serif" font-size="14" lengthAdjust="spacing" textLength="164.1719" x="184.1932" y="69.8714">Importar Ficheiro de Texto</text></g><g id="elem_UC2"><ellipse cx="266.3014" cy="154.8739" fill="#F1F1F1" rx="142.3014" ry="30.8603" style="stroke:#181818;stroke-width:0.5;"/><text fill="#000000" font-family="sans-serif" font-size="14" lengthAdjust="spacing" textLength="250.585" x="141.0089" y="158.6708">Processar e indexar na Graph Database</text></g><g id="elem_UC3"><ellipse cx="266.4277" cy="251.7992" fill="#F1F1F1" rx="141.9277" ry="30.7855" style="stroke:#181818;stroke-width:0.5;"/><text fill="#000000" font-family="sans-serif" font-size="14" lengthAdjust="spacing" textLength="249.792" x="141.5318" y="255.5961">Processar e indexar na Azure AI Search</text></g><g id="elem_UC4"><ellipse cx="266.6918" cy="337.252" fill="#F1F1F1" rx="81.6918" ry="18.7384" style="stroke:#181818;stroke-width:0.5;"/><text fill="#000000" font-family="sans-serif" font-size="14" lengthAdjust="spacing" textLength="112.8477" x="207.268" y="342.0557">Efetuar Perguntas</text></g><g id="elem_UC5"><ellipse cx="266.5827" cy="419.8302" fill="#F1F1F1" rx="132.0827" ry="28.8165" style="stroke:#181818;stroke-width:0.5;"/><text fill="#000000" font-family="sans-serif" font-size="14" lengthAdjust="spacing" textLength="228.792" x="152.1867" y="423.6271">Visualizar Resultados das Perguntas</text></g><g id="elem_UC6"><ellipse cx="266.3642" cy="514.7865" fill="#F1F1F1" rx="139.3642" ry="30.2728" style="stroke:#181818;stroke-width:0.5;"/><text fill="#000000" font-family="sans-serif" font-size="14" lengthAdjust="spacing" textLength="244.3438" x="144.1923" y="518.5834">Calcular Custos de de Armazenamento</text></g><g id="elem_UC7"><ellipse cx="266.5326" cy="605.1202" fill="#F1F1F1" rx="108.5326" ry="24.1065" style="stroke:#181818;stroke-width:0.5;"/><text fill="#000000" font-family="sans-serif" font-size="14" lengthAdjust="spacing" textLength="177.4199" x="177.8227" y="608.9171">Calcular Custos de Consulta</text></g><g id="elem_UC8"><ellipse cx="266.4086" cy="690.0954" fill="#F1F1F1" rx="118.4086" ry="26.0817" style="stroke:#181818;stroke-width:0.5;"/><text fill="#000000" font-family="sans-serif" font-size="14" lengthAdjust="spacing" textLength="199.2061" x="166.8056" y="693.8923">Gerar Relat&#243;rio de Compara&#231;&#227;o</text></g><!--entity user--><g id="elem_user"><ellipse cx="35.1758" cy="348.0137" fill="#F1F1F1" rx="8" ry="8" style="stroke:#181818;stroke-width:0.5;"/><path d="M35.1758,356.0137 L35.1758,383.0137 M22.1758,364.0137 L48.1758,364.0137 M35.1758,383.0137 L22.1758,398.0137 M35.1758,383.0137 L48.1758,398.0137 " fill="none" style="stroke:#181818;stroke-width:0.5;"/><text fill="#000000" font-family="sans-serif" font-size="14" lengthAdjust="spacing" textLength="58.3516" x="6" y="414.6211">Utilizador</text></g><!--link user to UC1--><g id="link_user_UC1"><path d="M40.2,339.4137 C48.15,271.9037 67.58,138.6537 100,106.0137 C117.81,88.0837 136.3469,79.0691 160.9169,73.1491 " fill="none" id="user-to-UC1" style="stroke:#181818;stroke-width:1.0;"/><polygon fill="#181818" points="166.75,71.7437,157.0634,69.9631,161.8891,72.9149,158.9374,77.7406,166.75,71.7437" style="stroke:#181818;stroke-width:1.0;"/></g><!--link user to UC2--><g id="link_user_UC2"><path d="M40.05,339.4337 C46.22,299.5437 61.66,238.8837 100,203.0137 C114.2,189.7237 126.2486,182.2177 144.6886,175.2377 " fill="none" id="user-to-UC2" style="stroke:#181818;stroke-width:1.0;"/><polygon fill="#181818" points="150.3,173.1137,140.4668,172.5588,145.6238,174.8837,143.2989,180.0407,150.3,173.1137" style="stroke:#181818;stroke-width:1.0;"/></g><!--link user to UC3--><g id="link_user_UC3"><path d="M61.15,339.4237 C71.67,325.5637 84.97,310.9837 100,301.0137 C118.23,288.9237 133.8207,281.6192 154.9407,274.6692 " fill="none" id="user-to-UC3" style="stroke:#181818;stroke-width:1.0;"/><polygon fill="#181818" points="160.64,272.7937,150.8407,271.8074,155.8905,274.3566,153.3413,279.4065,160.64,272.7937" style="stroke:#181818;stroke-width:1.0;"/></g><!--link user to UC4--><g id="link_user_UC4"><path d="M64.14,373.8637 C98.37,367.6037 151.288,357.9134 196.548,349.6334 " fill="none" id="user-to-UC4" style="stroke:#181818;stroke-width:1.0;"/><polygon fill="#181818" points="202.45,348.5537,192.8771,346.2386,197.5316,349.4535,194.3168,354.108,202.45,348.5537" style="stroke:#181818;stroke-width:1.0;"/></g><!--link user to UC5--><g id="link_user_UC5"><path d="M64.14,384.0437 C89.1,388.5037 121.2133,394.2395 157.5233,400.7195 " fill="none" id="user-to-UC5" style="stroke:#181818;stroke-width:1.0;"/><polygon fill="#181818" points="163.43,401.7737,155.2727,396.2547,158.5078,400.8952,153.8672,404.1303,163.43,401.7737" style="stroke:#181818;stroke-width:1.0;"/></g><!--link user to UC6--><g id="link_user_UC6"><path d="M57.37,418.7237 C68.16,435.4637 82.66,453.8337 100,466.0137 C118.02,478.6737 133.6426,486.2224 154.8726,493.2324 " fill="none" id="user-to-UC6" style="stroke:#181818;stroke-width:1.0;"/><polygon fill="#181818" points="160.57,495.1137,153.278,488.4935,155.8221,493.546,150.7697,496.0901,160.57,495.1137" style="stroke:#181818;stroke-width:1.0;"/></g><!--link user to UC7--><g id="link_user_UC7"><path d="M39.02,418.6937 C44.36,460.5537 59.12,525.5237 100,563.0137 C118.02,579.5437 135.8202,588.2468 159.5202,594.5268 " fill="none" id="user-to-UC7" style="stroke:#181818;stroke-width:1.0;"/><polygon fill="#181818" points="165.32,596.0637,157.6448,589.8919,160.4868,594.783,155.5957,597.625,165.32,596.0637" style="stroke:#181818;stroke-width:1.0;"/></g><!--link user to UC8--><g id="link_user_UC8"><path d="M40.52,418.7337 C48.86,484.9837 68.71,613.9437 100,646.0137 C115.68,662.0837 130.7701,670.7139 152.3401,677.4139 " fill="none" id="user-to-UC8" style="stroke:#181818;stroke-width:1.0;"/><polygon fill="#181818" points="158.07,679.1937,150.6616,672.704,153.295,677.7105,148.2885,680.3439,158.07,679.1937" style="stroke:#181818;stroke-width:1.0;"/></g><!--SRC=[ZP5DQiCm48NtEiNWJLTPDF-hWd7Ia4KXvAVGvLIUsAAsPKOZ22azJHSzG8-GYrLEGcjtqmvQp4FlquWtDsAa89WPp1XBX9GWGMTTq-oSLGNj1SG2comNI0sJ5cChXLeimqvCOOwOXXOTU4UiL8tw1JE2Q1qlOFEqsSuV8dXL42eODBfmjInhou8CzqRdPDWsuxPq41ir3-sIswv_nLQJSm4WC5LAXz1L20l6EeSP2Zu7snNj_mkDZvu9uYLi25ddLtRGPUTx4X_yA-BCLuBkQXjsRO_6UMnoO5YJyuM4G4A0mVeR7AakcM2XVH6un3kvX1vEp2KUgSAIgkz0nd-2YQtEioEur1cRTB45yVcJ1ShfauszS6MDZAUFqxkDViYfUbEgsIZqUdVdZRH4loq6RJ5iYr5RZDjYqXPJzGK0]--></g></svg>