<svg xmlns="http://www.w3.org/2000/svg" xmlns:xlink="http://www.w3.org/1999/xlink" contentStyleType="text/css" height="293px" preserveAspectRatio="none" style="width:386px;height:293px;background:#FFFFFF;" version="1.1" viewBox="0 0 386 293" width="386px" zoomAndPan="magnify"><defs/><g><line style="stroke:#181818;stroke-width:0.5;stroke-dasharray:5.0,5.0;" x1="37" x2="37" y1="83.6211" y2="210.4941"/><line style="stroke:#181818;stroke-width:0.5;stroke-dasharray:5.0,5.0;" x1="267.9385" x2="267.9385" y1="83.6211" y2="210.4941"/><text fill="#000000" font-family="sans-serif" font-size="14" lengthAdjust="spacing" textLength="58.3516" x="5" y="80.1074">Utilizador</text><ellipse cx="37.1758" cy="13.5" fill="#E2E2F0" rx="8" ry="8" style="stroke:#181818;stroke-width:0.5;"/><path d="M37.1758,21.5 L37.1758,48.5 M24.1758,29.5 L50.1758,29.5 M37.1758,48.5 L24.1758,63.5 M37.1758,48.5 L50.1758,63.5 " fill="none" style="stroke:#181818;stroke-width:0.5;"/><text fill="#000000" font-family="sans-serif" font-size="14" lengthAdjust="spacing" textLength="58.3516" x="5" y="224.6016">Utilizador</text><ellipse cx="37.1758" cy="236.6152" fill="#E2E2F0" rx="8" ry="8" style="stroke:#181818;stroke-width:0.5;"/><path d="M37.1758,244.6152 L37.1758,271.6152 M24.1758,252.6152 L50.1758,252.6152 M37.1758,271.6152 L24.1758,286.6152 M37.1758,271.6152 L50.1758,286.6152 " fill="none" style="stroke:#181818;stroke-width:0.5;"/><rect fill="#E2E2F0" height="32.6211" rx="2.5" ry="2.5" style="stroke:#181818;stroke-width:0.5;" width="64.5723" x="235.9385" y="50"/><text fill="#000000" font-family="sans-serif" font-size="14" lengthAdjust="spacing" textLength="50.5723" x="242.9385" y="72.1074">Sistema</text><rect fill="#E2E2F0" height="32.6211" rx="2.5" ry="2.5" style="stroke:#181818;stroke-width:0.5;" width="64.5723" x="235.9385" y="209.4941"/><text fill="#000000" font-family="sans-serif" font-size="14" lengthAdjust="spacing" textLength="50.5723" x="242.9385" y="231.6016">Sistema</text><polygon fill="#181818" points="256.2246,112.9121,266.2246,116.9121,256.2246,120.9121,260.2246,116.9121" style="stroke:#181818;stroke-width:1.0;"/><line style="stroke:#181818;stroke-width:1.0;" x1="37.1758" x2="262.2246" y1="116.9121" y2="116.9121"/><text fill="#000000" font-family="sans-serif" font-size="13" font-weight="bold" lengthAdjust="spacing" textLength="7.23" x="44.1758" y="111.6494">1</text><text fill="#000000" font-family="sans-serif" font-size="13" lengthAdjust="spacing" textLength="82.3672" x="55.4058" y="111.6494">Envia Ficheiro</text><line style="stroke:#181818;stroke-width:1.0;" x1="268.2246" x2="310.2246" y1="148.2031" y2="148.2031"/><line style="stroke:#181818;stroke-width:1.0;" x1="310.2246" x2="310.2246" y1="148.2031" y2="161.2031"/><line style="stroke:#181818;stroke-width:1.0;" x1="269.2246" x2="310.2246" y1="161.2031" y2="161.2031"/><polygon fill="#181818" points="279.2246,157.2031,269.2246,161.2031,279.2246,165.2031,275.2246,161.2031" style="stroke:#181818;stroke-width:1.0;"/><text fill="#000000" font-family="sans-serif" font-size="13" font-weight="bold" lengthAdjust="spacing" textLength="7.23" x="275.2246" y="142.9404">2</text><text fill="#000000" font-family="sans-serif" font-size="13" lengthAdjust="spacing" textLength="93.209" x="286.4546" y="142.9404">Guarda Ficheiro</text><polygon fill="#181818" points="48.1758,188.4941,38.1758,192.4941,48.1758,196.4941,44.1758,192.4941" style="stroke:#181818;stroke-width:1.0;"/><line style="stroke:#181818;stroke-width:1.0;" x1="42.1758" x2="267.2246" y1="192.4941" y2="192.4941"/><text fill="#000000" font-family="sans-serif" font-size="13" font-weight="bold" lengthAdjust="spacing" textLength="7.23" x="54.1758" y="187.2314">3</text><text fill="#000000" font-family="sans-serif" font-size="13" lengthAdjust="spacing" textLength="195.8188" x="65.4058" y="187.2314">Envia Mensagem de Confirma&#231;&#227;o</text><!--SRC=[ROmn3i8m34NtdC8RK-dUWGK14nFY02OnhQKc3ex3m7KOE4WlHfSAaDY-_djwgy4ibwvjyuZ9QXpNNc9Rw5OfUMe2OwyOdSDgacgyaCxRcoYSZKT-O11r6TNOSvuBSE9Y5D6v3uTcizpGmIxT6M7FVY1MSGluSGuLDVoNlh9BwqYfO4yH0i5MqfKrulIQdkBU]--></g></svg>