<svg xmlns="http://www.w3.org/2000/svg" xmlns:xlink="http://www.w3.org/1999/xlink" contentStyleType="text/css" height="417px" preserveAspectRatio="none" style="width:678px;height:417px;background:#FFFFFF;" version="1.1" viewBox="0 0 678 417" width="678px" zoomAndPan="magnify"><defs/><g><rect fill="#FFFFFF" height="215.7461" style="stroke:#181818;stroke-width:1.0;" width="10" x="52.1309" y="102.9121"/><rect fill="#FFFFFF" height="224.7461" style="stroke:#181818;stroke-width:1.0;" width="10" x="257.0488" y="102.9121"/><rect fill="#FFFFFF" height="90.582" style="stroke:#181818;stroke-width:1.0;" width="10" x="537.8149" y="204.7852"/><rect fill="none" height="126.1641" style="stroke:#000000;stroke-width:1.5;" width="469.1743" x="203.4214" y="162.2031"/><line style="stroke:#181818;stroke-width:0.5;stroke-dasharray:5.0,5.0;" x1="57" x2="57" y1="69.6211" y2="336.6582"/><line style="stroke:#181818;stroke-width:0.5;stroke-dasharray:5.0,5.0;" x1="261.4214" x2="261.4214" y1="69.6211" y2="336.6582"/><line style="stroke:#181818;stroke-width:0.5;stroke-dasharray:5.0,5.0;" x1="542.1255" x2="542.1255" y1="69.6211" y2="336.6582"/><rect fill="#E2E2F0" height="32.6211" rx="2.5" ry="2.5" style="stroke:#181818;stroke-width:0.5;" width="104.2617" x="5" y="36"/><text fill="#000000" font-family="sans-serif" font-size="14" lengthAdjust="spacing" textLength="90.2617" x="12" y="58.1074">ChatController</text><rect fill="#E2E2F0" height="32.6211" rx="2.5" ry="2.5" style="stroke:#181818;stroke-width:0.5;" width="104.2617" x="5" y="335.6582"/><text fill="#000000" font-family="sans-serif" font-size="14" lengthAdjust="spacing" textLength="90.2617" x="12" y="357.7656">ChatController</text><rect fill="#E2E2F0" height="32.6211" rx="2.5" ry="2.5" style="stroke:#181818;stroke-width:0.5;" width="97.2549" x="213.4214" y="36"/><text fill="#000000" font-family="sans-serif" font-size="14" lengthAdjust="spacing" textLength="83.2549" x="220.4214" y="58.1074">AzureService</text><rect fill="#E2E2F0" height="32.6211" rx="2.5" ry="2.5" style="stroke:#181818;stroke-width:0.5;" width="97.2549" x="213.4214" y="335.6582"/><text fill="#000000" font-family="sans-serif" font-size="14" lengthAdjust="spacing" textLength="83.2549" x="220.4214" y="357.7656">AzureService</text><text fill="#000000" font-family="sans-serif" font-size="14" lengthAdjust="spacing" textLength="93.3789" x="493.1255" y="66.1074">AzureAiSearch</text><path d="M524.8149,15 C524.8149,5 542.8149,5 542.8149,5 C542.8149,5 560.8149,5 560.8149,15 L560.8149,41 C560.8149,51 542.8149,51 542.8149,51 C542.8149,51 524.8149,51 524.8149,41 L524.8149,15 " fill="#E2E2F0" style="stroke:#181818;stroke-width:1.5;"/><path d="M524.8149,15 C524.8149,25 542.8149,25 542.8149,25 C542.8149,25 560.8149,25 560.8149,15 " fill="none" style="stroke:#181818;stroke-width:1.5;"/><text fill="#000000" font-family="sans-serif" font-size="14" lengthAdjust="spacing" textLength="93.3789" x="493.1255" y="350.7656">AzureAiSearch</text><path d="M524.8149,364.2793 C524.8149,354.2793 542.8149,354.2793 542.8149,354.2793 C542.8149,354.2793 560.8149,354.2793 560.8149,364.2793 L560.8149,390.2793 C560.8149,400.2793 542.8149,400.2793 542.8149,400.2793 C542.8149,400.2793 524.8149,400.2793 524.8149,390.2793 L524.8149,364.2793 " fill="#E2E2F0" style="stroke:#181818;stroke-width:1.5;"/><path d="M524.8149,364.2793 C524.8149,374.2793 542.8149,374.2793 542.8149,374.2793 C542.8149,374.2793 560.8149,374.2793 560.8149,364.2793 " fill="none" style="stroke:#181818;stroke-width:1.5;"/><rect fill="#FFFFFF" height="215.7461" style="stroke:#181818;stroke-width:1.0;" width="10" x="52.1309" y="102.9121"/><rect fill="#FFFFFF" height="224.7461" style="stroke:#181818;stroke-width:1.0;" width="10" x="257.0488" y="102.9121"/><rect fill="#FFFFFF" height="90.582" style="stroke:#181818;stroke-width:1.0;" width="10" x="537.8149" y="204.7852"/><polygon fill="#181818" points="245.0488,98.9121,255.0488,102.9121,245.0488,106.9121,249.0488,102.9121" style="stroke:#181818;stroke-width:1.0;"/><line style="stroke:#181818;stroke-width:1.0;" x1="62.1309" x2="251.0488" y1="102.9121" y2="102.9121"/><text fill="#000000" font-family="sans-serif" font-size="13" font-weight="bold" lengthAdjust="spacing" textLength="7.23" x="69.1309" y="97.6494">1</text><text fill="#000000" font-family="sans-serif" font-size="13" lengthAdjust="spacing" textLength="101.8735" x="80.3608" y="97.6494">Caminho Ficheiro</text><line style="stroke:#181818;stroke-width:1.0;stroke-dasharray:2.0,2.0;" x1="267.0488" x2="309.0488" y1="134.2031" y2="134.2031"/><line style="stroke:#181818;stroke-width:1.0;stroke-dasharray:2.0,2.0;" x1="309.0488" x2="309.0488" y1="134.2031" y2="147.2031"/><line style="stroke:#181818;stroke-width:1.0;stroke-dasharray:2.0,2.0;" x1="268.0488" x2="309.0488" y1="147.2031" y2="147.2031"/><polygon fill="#181818" points="278.0488,143.2031,268.0488,147.2031,278.0488,151.2031,274.0488,147.2031" style="stroke:#181818;stroke-width:1.0;"/><text fill="#000000" font-family="sans-serif" font-size="13" font-weight="bold" lengthAdjust="spacing" textLength="7.23" x="274.0488" y="128.9404">2</text><text fill="#000000" font-family="sans-serif" font-size="13" lengthAdjust="spacing" textLength="235.5361" x="285.2788" y="128.9404">Devide Ficheiro em Chunks (tamanho N)</text><path d="M203.4214,162.2031 L275.856,162.2031 L275.856,171.4941 L265.856,181.4941 L203.4214,181.4941 L203.4214,162.2031 " fill="#EEEEEE" style="stroke:#000000;stroke-width:1.5;"/><rect fill="none" height="126.1641" style="stroke:#000000;stroke-width:1.5;" width="469.1743" x="203.4214" y="162.2031"/><text fill="#000000" font-family="sans-serif" font-size="13" font-weight="bold" lengthAdjust="spacing" textLength="27.4346" x="218.4214" y="177.2314">loop</text><text fill="#000000" font-family="sans-serif" font-size="11" font-weight="bold" lengthAdjust="spacing" textLength="221.896" x="290.856" y="176.0732">[At&#233; serem processados todos os chunks]</text><polygon fill="#181818" points="525.8149,200.7852,535.8149,204.7852,525.8149,208.7852,529.8149,204.7852" style="stroke:#181818;stroke-width:1.0;"/><line style="stroke:#181818;stroke-width:1.0;" x1="267.0488" x2="531.8149" y1="204.7852" y2="204.7852"/><text fill="#000000" font-family="sans-serif" font-size="13" font-weight="bold" lengthAdjust="spacing" textLength="7.23" x="274.0488" y="199.5225">3</text><text fill="#000000" font-family="sans-serif" font-size="13" lengthAdjust="spacing" textLength="73.709" x="285.2788" y="199.5225">Envia Chunk</text><line style="stroke:#181818;stroke-width:1.0;stroke-dasharray:2.0,2.0;" x1="547.8149" x2="589.8149" y1="236.0762" y2="236.0762"/><line style="stroke:#181818;stroke-width:1.0;stroke-dasharray:2.0,2.0;" x1="589.8149" x2="589.8149" y1="236.0762" y2="249.0762"/><line style="stroke:#181818;stroke-width:1.0;stroke-dasharray:2.0,2.0;" x1="548.8149" x2="589.8149" y1="249.0762" y2="249.0762"/><polygon fill="#181818" points="558.8149,245.0762,548.8149,249.0762,558.8149,253.0762,554.8149,249.0762" style="stroke:#181818;stroke-width:1.0;"/><text fill="#000000" font-family="sans-serif" font-size="13" font-weight="bold" lengthAdjust="spacing" textLength="7.23" x="554.8149" y="230.8135">4</text><text fill="#000000" font-family="sans-serif" font-size="13" lengthAdjust="spacing" textLength="84.5508" x="566.0449" y="230.8135">Guarda Chunk</text><polygon fill="#181818" points="278.0488,276.3672,268.0488,280.3672,278.0488,284.3672,274.0488,280.3672" style="stroke:#181818;stroke-width:1.0;"/><line style="stroke:#181818;stroke-width:1.0;stroke-dasharray:2.0,2.0;" x1="272.0488" x2="536.8149" y1="280.3672" y2="280.3672"/><text fill="#000000" font-family="sans-serif" font-size="13" font-weight="bold" lengthAdjust="spacing" textLength="7.23" x="284.0488" y="275.1045">5</text><text fill="#000000" font-family="sans-serif" font-size="13" lengthAdjust="spacing" textLength="161.8462" x="295.2788" y="275.1045">Mensagem De Confirma&#231;&#227;o</text><polygon fill="#181818" points="68.1309,314.6582,58.1309,318.6582,68.1309,322.6582,64.1309,318.6582" style="stroke:#181818;stroke-width:1.0;"/><line style="stroke:#181818;stroke-width:1.0;stroke-dasharray:2.0,2.0;" x1="62.1309" x2="256.0488" y1="318.6582" y2="318.6582"/><text fill="#000000" font-family="sans-serif" font-size="13" font-weight="bold" lengthAdjust="spacing" textLength="7.23" x="74.1309" y="313.3955">6</text><text fill="#000000" font-family="sans-serif" font-size="13" lengthAdjust="spacing" textLength="159.688" x="85.3608" y="313.3955">Mensagem de Confirma&#231;&#227;o</text><!--SRC=[TP4nKiD034LxdKAJ2WfVW28p7WUeeCa9b5s1DSGhZtRjWkjGC9p35yCcu7YTiCKMcg_tloJgaeQkER0XG4kMn4bB8U6cgYbL6fBfySYsGOheib8kBzyxuprRBuv_nBGe07XATA38ly9IzapcwhFohmAGks2npL1uXnKr4ch51t4rYocGIz9JudN0kPvboMZ59Nx7lNYUwSWDLdKNtYBU96feSdw-XQDgYsKQlZ2oZPBMr76Cv3LYqkdNQM5J7-3uSjTjFlJeUXzwePFHIPzbdxSpe-RMuWhiiIFp6Urwotde9mwHNiSvTepZ1b_46Xe-Xmy53XwdOS7pFvak5hgwu8Bkr_G5T7KyW6y0]--></g></svg>