<svg xmlns="http://www.w3.org/2000/svg" xmlns:xlink="http://www.w3.org/1999/xlink" contentStyleType="text/css" height="339px" preserveAspectRatio="none" style="width:592px;height:339px;background:#FFFFFF;" version="1.1" viewBox="0 0 592 339" width="592px" zoomAndPan="magnify"><defs/><g><rect fill="#FFFFFF" height="138.1641" style="stroke:#181818;stroke-width:1.0;" width="10" x="52.1309" y="102.9121"/><rect fill="#FFFFFF" height="147.1641" style="stroke:#181818;stroke-width:1.0;" width="10" x="257.0488" y="102.9121"/><rect fill="#FFFFFF" height="75.582" style="stroke:#181818;stroke-width:1.0;" width="10" x="464.125" y="134.2031"/><line style="stroke:#181818;stroke-width:0.5;stroke-dasharray:5.0,5.0;" x1="57" x2="57" y1="69.6211" y2="259.0762"/><line style="stroke:#181818;stroke-width:0.5;stroke-dasharray:5.0,5.0;" x1="261.4214" x2="261.4214" y1="69.6211" y2="259.0762"/><line style="stroke:#181818;stroke-width:0.5;stroke-dasharray:5.0,5.0;" x1="468.4355" x2="468.4355" y1="69.6211" y2="259.0762"/><rect fill="#E2E2F0" height="32.6211" rx="2.5" ry="2.5" style="stroke:#181818;stroke-width:0.5;" width="104.2617" x="5" y="36"/><text fill="#000000" font-family="sans-serif" font-size="14" lengthAdjust="spacing" textLength="90.2617" x="12" y="58.1074">ChatController</text><rect fill="#E2E2F0" height="32.6211" rx="2.5" ry="2.5" style="stroke:#181818;stroke-width:0.5;" width="104.2617" x="5" y="258.0762"/><text fill="#000000" font-family="sans-serif" font-size="14" lengthAdjust="spacing" textLength="90.2617" x="12" y="280.1836">ChatController</text><rect fill="#E2E2F0" height="32.6211" rx="2.5" ry="2.5" style="stroke:#181818;stroke-width:0.5;" width="97.2549" x="213.4214" y="36"/><text fill="#000000" font-family="sans-serif" font-size="14" lengthAdjust="spacing" textLength="83.2549" x="220.4214" y="58.1074">AzureService</text><rect fill="#E2E2F0" height="32.6211" rx="2.5" ry="2.5" style="stroke:#181818;stroke-width:0.5;" width="97.2549" x="213.4214" y="258.0762"/><text fill="#000000" font-family="sans-serif" font-size="14" lengthAdjust="spacing" textLength="83.2549" x="220.4214" y="280.1836">AzureService</text><text fill="#000000" font-family="sans-serif" font-size="14" lengthAdjust="spacing" textLength="93.3789" x="419.4355" y="66.1074">AzureAiSearch</text><path d="M451.125,15 C451.125,5 469.125,5 469.125,5 C469.125,5 487.125,5 487.125,15 L487.125,41 C487.125,51 469.125,51 469.125,51 C469.125,51 451.125,51 451.125,41 L451.125,15 " fill="#E2E2F0" style="stroke:#181818;stroke-width:1.5;"/><path d="M451.125,15 C451.125,25 469.125,25 469.125,25 C469.125,25 487.125,25 487.125,15 " fill="none" style="stroke:#181818;stroke-width:1.5;"/><text fill="#000000" font-family="sans-serif" font-size="14" lengthAdjust="spacing" textLength="93.3789" x="419.4355" y="273.1836">AzureAiSearch</text><path d="M451.125,286.6973 C451.125,276.6973 469.125,276.6973 469.125,276.6973 C469.125,276.6973 487.125,276.6973 487.125,286.6973 L487.125,312.6973 C487.125,322.6973 469.125,322.6973 469.125,322.6973 C469.125,322.6973 451.125,322.6973 451.125,312.6973 L451.125,286.6973 " fill="#E2E2F0" style="stroke:#181818;stroke-width:1.5;"/><path d="M451.125,286.6973 C451.125,296.6973 469.125,296.6973 469.125,296.6973 C469.125,296.6973 487.125,296.6973 487.125,286.6973 " fill="none" style="stroke:#181818;stroke-width:1.5;"/><rect fill="#FFFFFF" height="138.1641" style="stroke:#181818;stroke-width:1.0;" width="10" x="52.1309" y="102.9121"/><rect fill="#FFFFFF" height="147.1641" style="stroke:#181818;stroke-width:1.0;" width="10" x="257.0488" y="102.9121"/><rect fill="#FFFFFF" height="75.582" style="stroke:#181818;stroke-width:1.0;" width="10" x="464.125" y="134.2031"/><polygon fill="#181818" points="245.0488,98.9121,255.0488,102.9121,245.0488,106.9121,249.0488,102.9121" style="stroke:#181818;stroke-width:1.0;"/><line style="stroke:#181818;stroke-width:1.0;" x1="62.1309" x2="251.0488" y1="102.9121" y2="102.9121"/><text fill="#000000" font-family="sans-serif" font-size="13" font-weight="bold" lengthAdjust="spacing" textLength="7.23" x="69.1309" y="97.6494">1</text><text fill="#000000" font-family="sans-serif" font-size="13" lengthAdjust="spacing" textLength="101.8735" x="80.3608" y="97.6494">Caminho Ficheiro</text><polygon fill="#181818" points="452.125,130.2031,462.125,134.2031,452.125,138.2031,456.125,134.2031" style="stroke:#181818;stroke-width:1.0;"/><line style="stroke:#181818;stroke-width:1.0;" x1="267.0488" x2="458.125" y1="134.2031" y2="134.2031"/><text fill="#000000" font-family="sans-serif" font-size="13" font-weight="bold" lengthAdjust="spacing" textLength="7.23" x="274.0488" y="128.9404">2</text><text fill="#000000" font-family="sans-serif" font-size="13" lengthAdjust="spacing" textLength="82.3672" x="285.2788" y="128.9404">Envia Ficheiro</text><line style="stroke:#181818;stroke-width:1.0;stroke-dasharray:2.0,2.0;" x1="474.125" x2="516.125" y1="165.4941" y2="165.4941"/><line style="stroke:#181818;stroke-width:1.0;stroke-dasharray:2.0,2.0;" x1="516.125" x2="516.125" y1="165.4941" y2="178.4941"/><line style="stroke:#181818;stroke-width:1.0;stroke-dasharray:2.0,2.0;" x1="475.125" x2="516.125" y1="178.4941" y2="178.4941"/><polygon fill="#181818" points="485.125,174.4941,475.125,178.4941,485.125,182.4941,481.125,178.4941" style="stroke:#181818;stroke-width:1.0;"/><text fill="#000000" font-family="sans-serif" font-size="13" font-weight="bold" lengthAdjust="spacing" textLength="7.23" x="481.125" y="160.2314">3</text><text fill="#000000" font-family="sans-serif" font-size="13" lengthAdjust="spacing" textLength="93.209" x="492.355" y="160.2314">Guarda Ficheiro</text><polygon fill="#181818" points="278.0488,205.7852,268.0488,209.7852,278.0488,213.7852,274.0488,209.7852" style="stroke:#181818;stroke-width:1.0;"/><line style="stroke:#181818;stroke-width:1.0;stroke-dasharray:2.0,2.0;" x1="272.0488" x2="468.125" y1="209.7852" y2="209.7852"/><text fill="#000000" font-family="sans-serif" font-size="13" font-weight="bold" lengthAdjust="spacing" textLength="7.23" x="284.0488" y="204.5225">4</text><text fill="#000000" font-family="sans-serif" font-size="13" lengthAdjust="spacing" textLength="161.8462" x="295.2788" y="204.5225">Mensagem De Confirma&#231;&#227;o</text><polygon fill="#181818" points="68.1309,237.0762,58.1309,241.0762,68.1309,245.0762,64.1309,241.0762" style="stroke:#181818;stroke-width:1.0;"/><line style="stroke:#181818;stroke-width:1.0;stroke-dasharray:2.0,2.0;" x1="62.1309" x2="256.0488" y1="241.0762" y2="241.0762"/><text fill="#000000" font-family="sans-serif" font-size="13" font-weight="bold" lengthAdjust="spacing" textLength="7.23" x="74.1309" y="235.8135">5</text><text fill="#000000" font-family="sans-serif" font-size="13" lengthAdjust="spacing" textLength="159.688" x="85.3608" y="235.8135">Mensagem de Confirma&#231;&#227;o</text><!--SRC=[VP0x3i9034HxdyAYpmKea53uL5ISODWOOedi8cUJWkjGS10kHeH8o4OHxMZyF3DeOl1DTH9ZeXiigjCRVEH5NYBcmKSBrwlOWb6pIwJKlhut9aUnLfryp1W9H0KYJgZbQrphKM2k_3bxXIZzmjagGV6ISrJgoy0xTQMe1OABsYBADE2W9raIMa_lttVuhMyLC_0qPdgLpN3s3QmOW-OlVhqEucjSfEADSDVYh5RXzNmz0XNoByNGfKDEnXj1Yp_GoMv4Rm00]--></g></svg>