<svg xmlns="http://www.w3.org/2000/svg" xmlns:xlink="http://www.w3.org/1999/xlink" contentStyleType="text/css" height="562px" preserveAspectRatio="none" style="width:609px;height:562px;background:#FFFFFF;" version="1.1" viewBox="0 0 609 562" width="609px" zoomAndPan="magnify"><defs/><g><rect fill="#FFFFFF" height="333.6191" style="stroke:#181818;stroke-width:1.0;" width="10" x="52.1309" y="130.5137"/><rect fill="#FFFFFF" height="333.6191" style="stroke:#181818;stroke-width:1.0;" width="10" x="264.2788" y="130.5137"/><rect fill="#FFFFFF" height="75.582" style="stroke:#181818;stroke-width:1.0;" width="10" x="469.1968" y="206.0957"/><rect fill="#FFFFFF" height="75.582" style="stroke:#181818;stroke-width:1.0;" width="10" x="469.1968" y="357.2598"/><line style="stroke:#181818;stroke-width:0.5;stroke-dasharray:5.0,5.0;" x1="57" x2="57" y1="97.2227" y2="482.1328"/><line style="stroke:#181818;stroke-width:0.5;stroke-dasharray:5.0,5.0;" x1="268.6479" x2="268.6479" y1="97.2227" y2="482.1328"/><line style="stroke:#181818;stroke-width:0.5;stroke-dasharray:5.0,5.0;" x1="473.9072" x2="473.9072" y1="97.2227" y2="482.1328"/><rect fill="#E2E2F0" height="32.6211" rx="2.5" ry="2.5" style="stroke:#181818;stroke-width:0.5;" width="104.2617" x="5" y="63.6016"/><text fill="#000000" font-family="sans-serif" font-size="14" lengthAdjust="spacing" textLength="90.2617" x="12" y="85.709">ChatController</text><rect fill="#E2E2F0" height="32.6211" rx="2.5" ry="2.5" style="stroke:#181818;stroke-width:0.5;" width="104.2617" x="5" y="481.1328"/><text fill="#000000" font-family="sans-serif" font-size="14" lengthAdjust="spacing" textLength="90.2617" x="12" y="503.2402">ChatController</text><rect fill="#E2E2F0" height="32.6211" rx="2.5" ry="2.5" style="stroke:#181818;stroke-width:0.5;" width="97.2617" x="220.6479" y="63.6016"/><text fill="#000000" font-family="sans-serif" font-size="14" lengthAdjust="spacing" textLength="83.2617" x="227.6479" y="85.709">Neo4jService</text><rect fill="#E2E2F0" height="32.6211" rx="2.5" ry="2.5" style="stroke:#181818;stroke-width:0.5;" width="97.2617" x="220.6479" y="481.1328"/><text fill="#000000" font-family="sans-serif" font-size="14" lengthAdjust="spacing" textLength="83.2617" x="227.6479" y="503.2402">Neo4jService</text><text fill="#000000" font-family="sans-serif" font-size="14" lengthAdjust="spacing" textLength="36.5791" x="452.9072" y="93.709">Neo4j</text><path d="M456.1968,42.6016 C456.1968,32.6016 474.1968,32.6016 474.1968,32.6016 C474.1968,32.6016 492.1968,32.6016 492.1968,42.6016 L492.1968,68.6016 C492.1968,78.6016 474.1968,78.6016 474.1968,78.6016 C474.1968,78.6016 456.1968,78.6016 456.1968,68.6016 L456.1968,42.6016 " fill="#E2E2F0" style="stroke:#181818;stroke-width:1.5;"/><path d="M456.1968,42.6016 C456.1968,52.6016 474.1968,52.6016 474.1968,52.6016 C474.1968,52.6016 492.1968,52.6016 492.1968,42.6016 " fill="none" style="stroke:#181818;stroke-width:1.5;"/><text fill="#000000" font-family="sans-serif" font-size="14" lengthAdjust="spacing" textLength="36.5791" x="452.9072" y="496.2402">Neo4j</text><path d="M456.1968,509.7539 C456.1968,499.7539 474.1968,499.7539 474.1968,499.7539 C474.1968,499.7539 492.1968,499.7539 492.1968,509.7539 L492.1968,535.7539 C492.1968,545.7539 474.1968,545.7539 474.1968,545.7539 C474.1968,545.7539 456.1968,545.7539 456.1968,535.7539 L456.1968,509.7539 " fill="#E2E2F0" style="stroke:#181818;stroke-width:1.5;"/><path d="M456.1968,509.7539 C456.1968,519.7539 474.1968,519.7539 474.1968,519.7539 C474.1968,519.7539 492.1968,519.7539 492.1968,509.7539 " fill="none" style="stroke:#181818;stroke-width:1.5;"/><rect fill="#FFFFFF" height="333.6191" style="stroke:#181818;stroke-width:1.0;" width="10" x="52.1309" y="130.5137"/><rect fill="#FFFFFF" height="333.6191" style="stroke:#181818;stroke-width:1.0;" width="10" x="264.2788" y="130.5137"/><rect fill="#FFFFFF" height="75.582" style="stroke:#181818;stroke-width:1.0;" width="10" x="469.1968" y="206.0957"/><rect fill="#FFFFFF" height="75.582" style="stroke:#181818;stroke-width:1.0;" width="10" x="469.1968" y="357.2598"/><polygon fill="#181818" points="252.2788,126.5137,262.2788,130.5137,252.2788,134.5137,256.2788,130.5137" style="stroke:#181818;stroke-width:1.0;"/><line style="stroke:#181818;stroke-width:1.0;" x1="62.1309" x2="258.2788" y1="130.5137" y2="130.5137"/><text fill="#000000" font-family="sans-serif" font-size="13" font-weight="bold" lengthAdjust="spacing" textLength="7.23" x="69.1309" y="125.251">1</text><text fill="#000000" font-family="sans-serif" font-size="13" lengthAdjust="spacing" textLength="101.8735" x="80.3608" y="125.251">Caminho Ficheiro</text><line style="stroke:#181818;stroke-width:1.0;stroke-dasharray:2.0,2.0;" x1="274.2788" x2="316.2788" y1="161.8047" y2="161.8047"/><line style="stroke:#181818;stroke-width:1.0;stroke-dasharray:2.0,2.0;" x1="316.2788" x2="316.2788" y1="161.8047" y2="174.8047"/><line style="stroke:#181818;stroke-width:1.0;stroke-dasharray:2.0,2.0;" x1="275.2788" x2="316.2788" y1="174.8047" y2="174.8047"/><polygon fill="#181818" points="285.2788,170.8047,275.2788,174.8047,285.2788,178.8047,281.2788,174.8047" style="stroke:#181818;stroke-width:1.0;"/><text fill="#000000" font-family="sans-serif" font-size="13" font-weight="bold" lengthAdjust="spacing" textLength="7.23" x="281.2788" y="156.542">2</text><text fill="#000000" font-family="sans-serif" font-size="13" lengthAdjust="spacing" textLength="95.3926" x="292.5088" y="156.542">Parse Entidades</text><polygon fill="#181818" points="457.1968,202.0957,467.1968,206.0957,457.1968,210.0957,461.1968,206.0957" style="stroke:#181818;stroke-width:1.0;"/><line style="stroke:#181818;stroke-width:1.0;" x1="274.2788" x2="463.1968" y1="206.0957" y2="206.0957"/><text fill="#000000" font-family="sans-serif" font-size="13" font-weight="bold" lengthAdjust="spacing" textLength="7.23" x="281.2788" y="200.833">3</text><text fill="#000000" font-family="sans-serif" font-size="13" lengthAdjust="spacing" textLength="93.9517" x="292.5088" y="200.833">Envia Entidades</text><line style="stroke:#181818;stroke-width:1.0;stroke-dasharray:2.0,2.0;" x1="479.1968" x2="521.1968" y1="237.3867" y2="237.3867"/><line style="stroke:#181818;stroke-width:1.0;stroke-dasharray:2.0,2.0;" x1="521.1968" x2="521.1968" y1="237.3867" y2="250.3867"/><line style="stroke:#181818;stroke-width:1.0;stroke-dasharray:2.0,2.0;" x1="480.1968" x2="521.1968" y1="250.3867" y2="250.3867"/><polygon fill="#181818" points="490.1968,246.3867,480.1968,250.3867,490.1968,254.3867,486.1968,250.3867" style="stroke:#181818;stroke-width:1.0;"/><text fill="#000000" font-family="sans-serif" font-size="13" font-weight="bold" lengthAdjust="spacing" textLength="7.23" x="486.1968" y="232.124">4</text><text fill="#000000" font-family="sans-serif" font-size="13" lengthAdjust="spacing" textLength="104.7935" x="497.4268" y="232.124">Guarda Entidades</text><polygon fill="#181818" points="285.2788,277.6777,275.2788,281.6777,285.2788,285.6777,281.2788,281.6777" style="stroke:#181818;stroke-width:1.0;"/><line style="stroke:#181818;stroke-width:1.0;stroke-dasharray:2.0,2.0;" x1="279.2788" x2="473.1968" y1="281.6777" y2="281.6777"/><text fill="#000000" font-family="sans-serif" font-size="13" font-weight="bold" lengthAdjust="spacing" textLength="7.23" x="291.2788" y="276.415">5</text><text fill="#000000" font-family="sans-serif" font-size="13" lengthAdjust="spacing" textLength="159.688" x="302.5088" y="276.415">Mensagem de Confirma&#231;&#227;o</text><line style="stroke:#181818;stroke-width:1.0;stroke-dasharray:2.0,2.0;" x1="274.2788" x2="316.2788" y1="312.9688" y2="312.9688"/><line style="stroke:#181818;stroke-width:1.0;stroke-dasharray:2.0,2.0;" x1="316.2788" x2="316.2788" y1="312.9688" y2="325.9688"/><line style="stroke:#181818;stroke-width:1.0;stroke-dasharray:2.0,2.0;" x1="275.2788" x2="316.2788" y1="325.9688" y2="325.9688"/><polygon fill="#181818" points="285.2788,321.9688,275.2788,325.9688,285.2788,329.9688,281.2788,325.9688" style="stroke:#181818;stroke-width:1.0;"/><text fill="#000000" font-family="sans-serif" font-size="13" font-weight="bold" lengthAdjust="spacing" textLength="7.23" x="281.2788" y="307.7061">6</text><text fill="#000000" font-family="sans-serif" font-size="13" lengthAdjust="spacing" textLength="91.7681" x="292.5088" y="307.7061">Parse Rela&#231;&#245;es</text><polygon fill="#181818" points="457.1968,353.2598,467.1968,357.2598,457.1968,361.2598,461.1968,357.2598" style="stroke:#181818;stroke-width:1.0;"/><line style="stroke:#181818;stroke-width:1.0;" x1="274.2788" x2="463.1968" y1="357.2598" y2="357.2598"/><text fill="#000000" font-family="sans-serif" font-size="13" font-weight="bold" lengthAdjust="spacing" textLength="7.23" x="281.2788" y="351.9971">7</text><text fill="#000000" font-family="sans-serif" font-size="13" lengthAdjust="spacing" textLength="90.3271" x="292.5088" y="351.9971">Envia Rela&#231;&#245;es</text><line style="stroke:#181818;stroke-width:1.0;stroke-dasharray:2.0,2.0;" x1="479.1968" x2="521.1968" y1="388.5508" y2="388.5508"/><line style="stroke:#181818;stroke-width:1.0;stroke-dasharray:2.0,2.0;" x1="521.1968" x2="521.1968" y1="388.5508" y2="401.5508"/><line style="stroke:#181818;stroke-width:1.0;stroke-dasharray:2.0,2.0;" x1="480.1968" x2="521.1968" y1="401.5508" y2="401.5508"/><polygon fill="#181818" points="490.1968,397.5508,480.1968,401.5508,490.1968,405.5508,486.1968,401.5508" style="stroke:#181818;stroke-width:1.0;"/><text fill="#000000" font-family="sans-serif" font-size="13" font-weight="bold" lengthAdjust="spacing" textLength="7.23" x="486.1968" y="383.2881">8</text><text fill="#000000" font-family="sans-serif" font-size="13" lengthAdjust="spacing" textLength="104.7935" x="497.4268" y="383.2881">Guarda Entidades</text><polygon fill="#181818" points="285.2788,428.8418,275.2788,432.8418,285.2788,436.8418,281.2788,432.8418" style="stroke:#181818;stroke-width:1.0;"/><line style="stroke:#181818;stroke-width:1.0;stroke-dasharray:2.0,2.0;" x1="279.2788" x2="473.1968" y1="432.8418" y2="432.8418"/><text fill="#000000" font-family="sans-serif" font-size="13" font-weight="bold" lengthAdjust="spacing" textLength="7.23" x="291.2788" y="427.5791">9</text><text fill="#000000" font-family="sans-serif" font-size="13" lengthAdjust="spacing" textLength="159.688" x="302.5088" y="427.5791">Mensagem de Confirma&#231;&#227;o</text><polygon fill="#181818" points="68.1309,460.1328,58.1309,464.1328,68.1309,468.1328,64.1309,464.1328" style="stroke:#181818;stroke-width:1.0;"/><line style="stroke:#181818;stroke-width:1.0;stroke-dasharray:2.0,2.0;" x1="62.1309" x2="268.2788" y1="464.1328" y2="464.1328"/><text fill="#000000" font-family="sans-serif" font-size="13" font-weight="bold" lengthAdjust="spacing" textLength="14.46" x="74.1309" y="458.8701">10</text><text fill="#000000" font-family="sans-serif" font-size="13" lengthAdjust="spacing" textLength="159.688" x="92.5908" y="458.8701">Mensagem de Confirma&#231;&#227;o</text><line style="stroke:none;stroke-width:1.0;" x1="0" x2="158.6987" y1="11.6504" y2="11.6504"/><line style="stroke:none;stroke-width:1.0;" x1="0" x2="158.6987" y1="13.6504" y2="13.6504"/><text fill="#888888" font-family="sans-serif" font-size="10" lengthAdjust="spacing" textLength="21.123" x="161.4771" y="15.291">Nota</text><line style="stroke:none;stroke-width:1.0;" x1="185.3784" x2="344.0771" y1="11.6504" y2="11.6504"/><line style="stroke:none;stroke-width:1.0;" x1="185.3784" x2="344.0771" y1="13.6504" y2="13.6504"/><text fill="#888888" font-family="sans-serif" font-size="10" lengthAdjust="spacing" textLength="344.0771" x="0" y="29.0918">Este processo s&#243; &#233; feito depois do processamento do ficheiro estar completo.</text><!--SRC=[nLAzJiCm4Dxz5AVkPM922aiKcAWgU8AhVI56YI-oBtaX1iICU8Ay66v9qpYbGaoCllj-xZiVTiAkQtRabQgf5AW8JNna6MnO4B9C5K48Mi-QGc08mmSCxr2I5GP3BTi0XezzRCZjwmobrHLPpq11q8Fcfgr9-4gHCwE7Qj6BrRP59x3AAvISdNYkQ_8hm00wAQNm3V7ronFvtcewWDsie0mAxZ0G761JMwbK4jQt2Gzk8CV6kehXRfnVeHRROrp1OfgfdXWdQkjp-ItwE5NXn9guWw0MX14VWONhBSw0gTqtxMGG2VSTUZDdB22d6Hx81Noc9duVn42bzGqERyChAqC_sVmQvv7glS3dqVHYd1dmV_AS1reSn5_KfcEZIpVo1G00]--></g></svg>