<svg xmlns="http://www.w3.org/2000/svg" xmlns:xlink="http://www.w3.org/1999/xlink" contentStyleType="text/css" height="558px" preserveAspectRatio="none" style="width:1119px;height:558px;background:#FFFFFF;" version="1.1" viewBox="0 0 1119 558" width="1119px" zoomAndPan="magnify"><defs/><g><rect fill="#FFFFFF" height="373.2012" style="stroke:#181818;stroke-width:1.0;" width="10" x="32.1758" y="93.6211"/><rect fill="#FFFFFF" height="340.9102" style="stroke:#181818;stroke-width:1.0;" width="10" x="315.5464" y="116.9121"/><rect fill="#FFFFFF" height="278.3281" style="stroke:#181818;stroke-width:1.0;" width="10" x="520.4644" y="148.2031"/><rect fill="#FFFFFF" height="46.291" style="stroke:#181818;stroke-width:1.0;" width="10" x="812.855" y="250.0762"/><rect fill="#FFFFFF" height="75.582" style="stroke:#181818;stroke-width:1.0;" width="10" x="899.7891" y="319.6582"/><rect fill="none" height="81.873" style="stroke:#000000;stroke-width:1.5;" width="369.9629" x="478.5093" y="207.4941"/><line style="stroke:#181818;stroke-width:0.5;stroke-dasharray:5.0,5.0;" x1="37" x2="37" y1="83.6211" y2="475.8223"/><line style="stroke:#181818;stroke-width:0.5;stroke-dasharray:5.0,5.0;" x1="320.4155" x2="320.4155" y1="83.6211" y2="475.8223"/><line style="stroke:#181818;stroke-width:0.5;stroke-dasharray:5.0,5.0;" x1="524.5093" x2="524.5093" y1="83.6211" y2="475.8223"/><line style="stroke:#181818;stroke-width:0.5;stroke-dasharray:5.0,5.0;" x1="817.2378" x2="817.2378" y1="83.6211" y2="475.8223"/><line style="stroke:#181818;stroke-width:0.5;stroke-dasharray:5.0,5.0;" x1="904.4722" x2="904.4722" y1="83.6211" y2="475.8223"/><text fill="#000000" font-family="sans-serif" font-size="14" lengthAdjust="spacing" textLength="58.3516" x="5" y="80.1074">Utilizador</text><ellipse cx="37.1758" cy="13.5" fill="#E2E2F0" rx="8" ry="8" style="stroke:#181818;stroke-width:0.5;"/><path d="M37.1758,21.5 L37.1758,48.5 M24.1758,29.5 L50.1758,29.5 M37.1758,48.5 L24.1758,63.5 M37.1758,48.5 L50.1758,63.5 " fill="none" style="stroke:#181818;stroke-width:0.5;"/><text fill="#000000" font-family="sans-serif" font-size="14" lengthAdjust="spacing" textLength="58.3516" x="5" y="489.9297">Utilizador</text><ellipse cx="37.1758" cy="501.9434" fill="#E2E2F0" rx="8" ry="8" style="stroke:#181818;stroke-width:0.5;"/><path d="M37.1758,509.9434 L37.1758,536.9434 M24.1758,517.9434 L50.1758,517.9434 M37.1758,536.9434 L24.1758,551.9434 M37.1758,536.9434 L50.1758,551.9434 " fill="none" style="stroke:#181818;stroke-width:0.5;"/><rect fill="#E2E2F0" height="32.6211" rx="2.5" ry="2.5" style="stroke:#181818;stroke-width:0.5;" width="104.2617" x="268.4155" y="50"/><text fill="#000000" font-family="sans-serif" font-size="14" lengthAdjust="spacing" textLength="90.2617" x="275.4155" y="72.1074">ChatController</text><rect fill="#E2E2F0" height="32.6211" rx="2.5" ry="2.5" style="stroke:#181818;stroke-width:0.5;" width="104.2617" x="268.4155" y="474.8223"/><text fill="#000000" font-family="sans-serif" font-size="14" lengthAdjust="spacing" textLength="90.2617" x="275.4155" y="496.9297">ChatController</text><rect fill="#E2E2F0" height="32.6211" rx="2.5" ry="2.5" style="stroke:#181818;stroke-width:0.5;" width="73.9102" x="488.5093" y="50"/><text fill="#000000" font-family="sans-serif" font-size="14" lengthAdjust="spacing" textLength="59.9102" x="495.5093" y="72.1074">X Service</text><rect fill="#E2E2F0" height="32.6211" rx="2.5" ry="2.5" style="stroke:#181818;stroke-width:0.5;" width="73.9102" x="488.5093" y="474.8223"/><text fill="#000000" font-family="sans-serif" font-size="14" lengthAdjust="spacing" textLength="59.9102" x="495.5093" y="496.9297">X Service</text><rect fill="#E2E2F0" height="32.6211" rx="2.5" ry="2.5" style="stroke:#181818;stroke-width:0.5;" width="41.2344" x="797.2378" y="50"/><text fill="#000000" font-family="sans-serif" font-size="14" lengthAdjust="spacing" textLength="27.2344" x="804.2378" y="72.1074">LLM</text><rect fill="#E2E2F0" height="32.6211" rx="2.5" ry="2.5" style="stroke:#181818;stroke-width:0.5;" width="41.2344" x="797.2378" y="474.8223"/><text fill="#000000" font-family="sans-serif" font-size="14" lengthAdjust="spacing" textLength="27.2344" x="804.2378" y="496.9297">LLM</text><text fill="#000000" font-family="sans-serif" font-size="14" lengthAdjust="spacing" textLength="106.6338" x="848.4722" y="80.1074">X Base de dados</text><path d="M886.7891,29 C886.7891,19 904.7891,19 904.7891,19 C904.7891,19 922.7891,19 922.7891,29 L922.7891,55 C922.7891,65 904.7891,65 904.7891,65 C904.7891,65 886.7891,65 886.7891,55 L886.7891,29 " fill="#E2E2F0" style="stroke:#181818;stroke-width:1.5;"/><path d="M886.7891,29 C886.7891,39 904.7891,39 904.7891,39 C904.7891,39 922.7891,39 922.7891,29 " fill="none" style="stroke:#181818;stroke-width:1.5;"/><text fill="#000000" font-family="sans-serif" font-size="14" lengthAdjust="spacing" textLength="106.6338" x="848.4722" y="489.9297">X Base de dados</text><path d="M886.7891,503.4434 C886.7891,493.4434 904.7891,493.4434 904.7891,493.4434 C904.7891,493.4434 922.7891,493.4434 922.7891,503.4434 L922.7891,529.4434 C922.7891,539.4434 904.7891,539.4434 904.7891,539.4434 C904.7891,539.4434 886.7891,539.4434 886.7891,529.4434 L886.7891,503.4434 " fill="#E2E2F0" style="stroke:#181818;stroke-width:1.5;"/><path d="M886.7891,503.4434 C886.7891,513.4434 904.7891,513.4434 904.7891,513.4434 C904.7891,513.4434 922.7891,513.4434 922.7891,503.4434 " fill="none" style="stroke:#181818;stroke-width:1.5;"/><rect fill="#FFFFFF" height="373.2012" style="stroke:#181818;stroke-width:1.0;" width="10" x="32.1758" y="93.6211"/><rect fill="#FFFFFF" height="340.9102" style="stroke:#181818;stroke-width:1.0;" width="10" x="315.5464" y="116.9121"/><rect fill="#FFFFFF" height="278.3281" style="stroke:#181818;stroke-width:1.0;" width="10" x="520.4644" y="148.2031"/><rect fill="#FFFFFF" height="46.291" style="stroke:#181818;stroke-width:1.0;" width="10" x="812.855" y="250.0762"/><rect fill="#FFFFFF" height="75.582" style="stroke:#181818;stroke-width:1.0;" width="10" x="899.7891" y="319.6582"/><polygon fill="#181818" points="303.5464,112.9121,313.5464,116.9121,303.5464,120.9121,307.5464,116.9121" style="stroke:#181818;stroke-width:1.0;"/><line style="stroke:#181818;stroke-width:1.0;" x1="42.1758" x2="309.5464" y1="116.9121" y2="116.9121"/><text fill="#000000" font-family="sans-serif" font-size="13" font-weight="bold" lengthAdjust="spacing" textLength="7.23" x="49.1758" y="111.6494">1</text><text fill="#000000" font-family="sans-serif" font-size="13" lengthAdjust="spacing" textLength="243.1406" x="60.4058" y="111.6494">POST: /chat/import-file?filename=&lt;name&gt;</text><polygon fill="#181818" points="508.4644,144.2031,518.4644,148.2031,508.4644,152.2031,512.4644,148.2031" style="stroke:#181818;stroke-width:1.0;"/><line style="stroke:#181818;stroke-width:1.0;" x1="325.5464" x2="514.4644" y1="148.2031" y2="148.2031"/><text fill="#000000" font-family="sans-serif" font-size="13" font-weight="bold" lengthAdjust="spacing" textLength="7.23" x="332.5464" y="142.9404">2</text><text fill="#000000" font-family="sans-serif" font-size="13" lengthAdjust="spacing" textLength="82.3672" x="343.7764" y="142.9404">Envia Ficheiro</text><line style="stroke:#181818;stroke-width:1.0;stroke-dasharray:2.0,2.0;" x1="530.4644" x2="572.4644" y1="179.4941" y2="179.4941"/><line style="stroke:#181818;stroke-width:1.0;stroke-dasharray:2.0,2.0;" x1="572.4644" x2="572.4644" y1="179.4941" y2="192.4941"/><line style="stroke:#181818;stroke-width:1.0;stroke-dasharray:2.0,2.0;" x1="531.4644" x2="572.4644" y1="192.4941" y2="192.4941"/><polygon fill="#181818" points="541.4644,188.4941,531.4644,192.4941,541.4644,196.4941,537.4644,192.4941" style="stroke:#181818;stroke-width:1.0;"/><text fill="#000000" font-family="sans-serif" font-size="13" font-weight="bold" lengthAdjust="spacing" textLength="7.23" x="537.4644" y="174.2314">3</text><text fill="#000000" font-family="sans-serif" font-size="13" lengthAdjust="spacing" textLength="228.3062" x="548.6943" y="174.2314">Divide Ficheiro em chunks (tamanho N)</text><path d="M478.5093,207.4941 L550.9438,207.4941 L550.9438,216.7852 L540.9438,226.7852 L478.5093,226.7852 L478.5093,207.4941 " fill="#EEEEEE" style="stroke:#000000;stroke-width:1.5;"/><rect fill="none" height="81.873" style="stroke:#000000;stroke-width:1.5;" width="369.9629" x="478.5093" y="207.4941"/><text fill="#000000" font-family="sans-serif" font-size="13" font-weight="bold" lengthAdjust="spacing" textLength="27.4346" x="493.5093" y="222.5225">loop</text><text fill="#000000" font-family="sans-serif" font-size="11" font-weight="bold" lengthAdjust="spacing" textLength="220.0698" x="565.9438" y="221.3643">[at&#233; serem processados todos os chunks]</text><polygon fill="#181818" points="800.855,246.0762,810.855,250.0762,800.855,254.0762,804.855,250.0762" style="stroke:#181818;stroke-width:1.0;"/><line style="stroke:#181818;stroke-width:1.0;" x1="530.4644" x2="806.855" y1="250.0762" y2="250.0762"/><text fill="#000000" font-family="sans-serif" font-size="13" font-weight="bold" lengthAdjust="spacing" textLength="7.23" x="537.4644" y="244.8135">4</text><text fill="#000000" font-family="sans-serif" font-size="13" lengthAdjust="spacing" textLength="252.1606" x="548.6943" y="244.8135">Processa Informa&#231;&#227;o Conforme Necess&#225;rio</text><polygon fill="#181818" points="541.4644,277.3672,531.4644,281.3672,541.4644,285.3672,537.4644,281.3672" style="stroke:#181818;stroke-width:1.0;"/><line style="stroke:#181818;stroke-width:1.0;stroke-dasharray:2.0,2.0;" x1="535.4644" x2="811.855" y1="281.3672" y2="281.3672"/><text fill="#000000" font-family="sans-serif" font-size="13" font-weight="bold" lengthAdjust="spacing" textLength="7.23" x="547.4644" y="276.1045">5</text><text fill="#000000" font-family="sans-serif" font-size="13" lengthAdjust="spacing" textLength="145.9707" x="558.6943" y="276.1045">Envia Chunk Processado</text><polygon fill="#181818" points="887.7891,315.6582,897.7891,319.6582,887.7891,323.6582,891.7891,319.6582" style="stroke:#181818;stroke-width:1.0;"/><line style="stroke:#181818;stroke-width:1.0;" x1="530.4644" x2="893.7891" y1="319.6582" y2="319.6582"/><text fill="#000000" font-family="sans-serif" font-size="13" font-weight="bold" lengthAdjust="spacing" textLength="7.23" x="537.4644" y="314.3955">6</text><text fill="#000000" font-family="sans-serif" font-size="13" lengthAdjust="spacing" textLength="173.4243" x="548.6943" y="314.3955">Envia Informa&#231;&#227;o Processada</text><line style="stroke:#181818;stroke-width:1.0;stroke-dasharray:2.0,2.0;" x1="909.7891" x2="951.7891" y1="350.9492" y2="350.9492"/><line style="stroke:#181818;stroke-width:1.0;stroke-dasharray:2.0,2.0;" x1="951.7891" x2="951.7891" y1="350.9492" y2="363.9492"/><line style="stroke:#181818;stroke-width:1.0;stroke-dasharray:2.0,2.0;" x1="910.7891" x2="951.7891" y1="363.9492" y2="363.9492"/><polygon fill="#181818" points="920.7891,359.9492,910.7891,363.9492,920.7891,367.9492,916.7891,363.9492" style="stroke:#181818;stroke-width:1.0;"/><text fill="#000000" font-family="sans-serif" font-size="13" font-weight="bold" lengthAdjust="spacing" textLength="7.23" x="916.7891" y="345.6865">7</text><text fill="#000000" font-family="sans-serif" font-size="13" lengthAdjust="spacing" textLength="184.2661" x="928.019" y="345.6865">Guarda Informa&#231;&#227;o Processada</text><polygon fill="#181818" points="541.4644,391.2402,531.4644,395.2402,541.4644,399.2402,537.4644,395.2402" style="stroke:#181818;stroke-width:1.0;"/><line style="stroke:#181818;stroke-width:1.0;stroke-dasharray:2.0,2.0;" x1="535.4644" x2="903.7891" y1="395.2402" y2="395.2402"/><text fill="#000000" font-family="sans-serif" font-size="13" font-weight="bold" lengthAdjust="spacing" textLength="7.23" x="547.4644" y="389.9775">8</text><text fill="#000000" font-family="sans-serif" font-size="13" lengthAdjust="spacing" textLength="159.688" x="558.6943" y="389.9775">Mensagem de Confirma&#231;&#227;o</text><polygon fill="#181818" points="336.5464,422.5313,326.5464,426.5313,336.5464,430.5313,332.5464,426.5313" style="stroke:#181818;stroke-width:1.0;"/><line style="stroke:#181818;stroke-width:1.0;stroke-dasharray:2.0,2.0;" x1="330.5464" x2="524.4644" y1="426.5313" y2="426.5313"/><text fill="#000000" font-family="sans-serif" font-size="13" font-weight="bold" lengthAdjust="spacing" textLength="7.23" x="342.5464" y="421.2686">9</text><text fill="#000000" font-family="sans-serif" font-size="13" lengthAdjust="spacing" textLength="159.688" x="353.7764" y="421.2686">Mensagem de Confirma&#231;&#227;o</text><polygon fill="#181818" points="53.1758,453.8223,43.1758,457.8223,53.1758,461.8223,49.1758,457.8223" style="stroke:#181818;stroke-width:1.0;"/><line style="stroke:#181818;stroke-width:1.0;stroke-dasharray:2.0,2.0;" x1="47.1758" x2="319.5464" y1="457.8223" y2="457.8223"/><text fill="#000000" font-family="sans-serif" font-size="13" font-weight="bold" lengthAdjust="spacing" textLength="14.46" x="59.1758" y="452.5596">10</text><text fill="#000000" font-family="sans-serif" font-size="13" lengthAdjust="spacing" textLength="159.688" x="77.6357" y="452.5596">Mensagem de Confirma&#231;&#227;o</text><!--SRC=[ZLBBIWCn5DtdAovTwMBelcX5wmEXhK8LtDucjqvm9XcIp2py6t4XViVycBbjPoO32aAuISWv9-S-i0xMrEMMdBYKmJfu3hhGxwZY4JtKFZw82btGKbTe0Yno30jhWhD5GNkCx6yZuEG5DkGQBMd2A7yuZyKco-Lg_reKfH0A0sxH4rElU5TnHIT-3r5R8L06tM2WWoyEaCqJ0p23nuVDqmocCjgSwhAoBcGxNT051uCbdPznd2TQYN-HI4NXe-UeUcCQZN2hPKxQsO7RPzL1in7jMZSw9j7nW4gGUMtUF9m4BD7a5jQdeh2s0WpjDpCZf79MalUSEGJBCQu3R_XdpZNZV8zWk3SxwqfilzfF2x53V2DO4x-s7qudhhdQpCv-oN71__IgoWeo2jYXK3GIIAseRSyVsUXbSFWyzZ72iuvrLwDJVzEEqC7bYep7rrYbM5VEKdUir1_FIjgHqOJyIw5lR3eHKMa_S__KI0Rh1m00]--></g></svg>