<svg xmlns="http://www.w3.org/2000/svg" xmlns:xlink="http://www.w3.org/1999/xlink" contentStyleType="text/css" height="418px" preserveAspectRatio="none" style="width:735px;height:418px;background:#FFFFFF;" version="1.1" viewBox="0 0 735 418" width="735px" zoomAndPan="magnify"><defs/><g><rect fill="#FFFFFF" height="233.0371" style="stroke:#181818;stroke-width:1.0;" width="10" x="32.1758" y="93.6211"/><rect fill="#FFFFFF" height="200.7461" style="stroke:#181818;stroke-width:1.0;" width="10" x="234.2056" y="116.9121"/><rect fill="#FFFFFF" height="134.1641" style="stroke:#181818;stroke-width:1.0;" width="10" x="436.2354" y="192.4941"/><rect fill="#FFFFFF" height="31.291" style="stroke:#181818;stroke-width:1.0;" width="10" x="638.2651" y="223.7852"/><line style="stroke:#181818;stroke-width:0.5;stroke-dasharray:5.0,5.0;" x1="37" x2="37" y1="83.6211" y2="335.6582"/><line style="stroke:#181818;stroke-width:0.5;stroke-dasharray:5.0,5.0;" x1="238.5815" x2="238.5815" y1="83.6211" y2="335.6582"/><line style="stroke:#181818;stroke-width:0.5;stroke-dasharray:5.0,5.0;" x1="440.6147" x2="440.6147" y1="83.6211" y2="335.6582"/><line style="stroke:#181818;stroke-width:0.5;stroke-dasharray:5.0,5.0;" x1="642.9448" x2="642.9448" y1="83.6211" y2="335.6582"/><text fill="#000000" font-family="sans-serif" font-size="14" lengthAdjust="spacing" textLength="58.3516" x="5" y="80.1074">Utilizador</text><ellipse cx="37.1758" cy="13.5" fill="#E2E2F0" rx="8" ry="8" style="stroke:#181818;stroke-width:0.5;"/><path d="M37.1758,21.5 L37.1758,48.5 M24.1758,29.5 L50.1758,29.5 M37.1758,48.5 L24.1758,63.5 M37.1758,48.5 L50.1758,63.5 " fill="none" style="stroke:#181818;stroke-width:0.5;"/><text fill="#000000" font-family="sans-serif" font-size="14" lengthAdjust="spacing" textLength="58.3516" x="5" y="349.7656">Utilizador</text><ellipse cx="37.1758" cy="361.7793" fill="#E2E2F0" rx="8" ry="8" style="stroke:#181818;stroke-width:0.5;"/><path d="M37.1758,369.7793 L37.1758,396.7793 M24.1758,377.7793 L50.1758,377.7793 M37.1758,396.7793 L24.1758,411.7793 M37.1758,396.7793 L50.1758,411.7793 " fill="none" style="stroke:#181818;stroke-width:0.5;"/><rect fill="#E2E2F0" height="32.6211" rx="2.5" ry="2.5" style="stroke:#181818;stroke-width:0.5;" width="97.248" x="190.5815" y="50"/><text fill="#000000" font-family="sans-serif" font-size="14" lengthAdjust="spacing" textLength="83.248" x="197.5815" y="72.1074">FileController</text><rect fill="#E2E2F0" height="32.6211" rx="2.5" ry="2.5" style="stroke:#181818;stroke-width:0.5;" width="97.248" x="190.5815" y="334.6582"/><text fill="#000000" font-family="sans-serif" font-size="14" lengthAdjust="spacing" textLength="83.248" x="197.5815" y="356.7656">FileController</text><rect fill="#E2E2F0" height="32.6211" rx="2.5" ry="2.5" style="stroke:#181818;stroke-width:0.5;" width="83.2412" x="399.6147" y="50"/><text fill="#000000" font-family="sans-serif" font-size="14" lengthAdjust="spacing" textLength="69.2412" x="406.6147" y="72.1074">FileService</text><rect fill="#E2E2F0" height="32.6211" rx="2.5" ry="2.5" style="stroke:#181818;stroke-width:0.5;" width="83.2412" x="399.6147" y="334.6582"/><text fill="#000000" font-family="sans-serif" font-size="14" lengthAdjust="spacing" textLength="69.2412" x="406.6147" y="356.7656">FileService</text><text fill="#000000" font-family="sans-serif" font-size="14" lengthAdjust="spacing" textLength="176.6406" x="551.9448" y="80.1074">Sistema de Armazenamento</text><path d="M625.2651,29 C625.2651,19 643.2651,19 643.2651,19 C643.2651,19 661.2651,19 661.2651,29 L661.2651,55 C661.2651,65 643.2651,65 643.2651,65 C643.2651,65 625.2651,65 625.2651,55 L625.2651,29 " fill="#E2E2F0" style="stroke:#181818;stroke-width:1.5;"/><path d="M625.2651,29 C625.2651,39 643.2651,39 643.2651,39 C643.2651,39 661.2651,39 661.2651,29 " fill="none" style="stroke:#181818;stroke-width:1.5;"/><text fill="#000000" font-family="sans-serif" font-size="14" lengthAdjust="spacing" textLength="176.6406" x="551.9448" y="349.7656">Sistema de Armazenamento</text><path d="M625.2651,363.2793 C625.2651,353.2793 643.2651,353.2793 643.2651,353.2793 C643.2651,353.2793 661.2651,353.2793 661.2651,363.2793 L661.2651,389.2793 C661.2651,399.2793 643.2651,399.2793 643.2651,399.2793 C643.2651,399.2793 625.2651,399.2793 625.2651,389.2793 L625.2651,363.2793 " fill="#E2E2F0" style="stroke:#181818;stroke-width:1.5;"/><path d="M625.2651,363.2793 C625.2651,373.2793 643.2651,373.2793 643.2651,373.2793 C643.2651,373.2793 661.2651,373.2793 661.2651,363.2793 " fill="none" style="stroke:#181818;stroke-width:1.5;"/><rect fill="#FFFFFF" height="233.0371" style="stroke:#181818;stroke-width:1.0;" width="10" x="32.1758" y="93.6211"/><rect fill="#FFFFFF" height="200.7461" style="stroke:#181818;stroke-width:1.0;" width="10" x="234.2056" y="116.9121"/><rect fill="#FFFFFF" height="134.1641" style="stroke:#181818;stroke-width:1.0;" width="10" x="436.2354" y="192.4941"/><rect fill="#FFFFFF" height="31.291" style="stroke:#181818;stroke-width:1.0;" width="10" x="638.2651" y="223.7852"/><polygon fill="#181818" points="222.2056,112.9121,232.2056,116.9121,222.2056,120.9121,226.2056,116.9121" style="stroke:#181818;stroke-width:1.0;"/><line style="stroke:#181818;stroke-width:1.0;" x1="42.1758" x2="228.2056" y1="116.9121" y2="116.9121"/><text fill="#000000" font-family="sans-serif" font-size="13" font-weight="bold" lengthAdjust="spacing" textLength="7.23" x="49.1758" y="111.6494">1</text><text fill="#000000" font-family="sans-serif" font-size="13" lengthAdjust="spacing" textLength="130.0254" x="60.4058" y="111.6494">POST: /files/import-file</text><line style="stroke:#181818;stroke-width:1.0;stroke-dasharray:2.0,2.0;" x1="244.2056" x2="286.2056" y1="148.2031" y2="148.2031"/><line style="stroke:#181818;stroke-width:1.0;stroke-dasharray:2.0,2.0;" x1="286.2056" x2="286.2056" y1="148.2031" y2="161.2031"/><line style="stroke:#181818;stroke-width:1.0;stroke-dasharray:2.0,2.0;" x1="245.2056" x2="286.2056" y1="161.2031" y2="161.2031"/><polygon fill="#181818" points="255.2056,157.2031,245.2056,161.2031,255.2056,165.2031,251.2056,161.2031" style="stroke:#181818;stroke-width:1.0;"/><text fill="#000000" font-family="sans-serif" font-size="13" font-weight="bold" lengthAdjust="spacing" textLength="7.23" x="251.2056" y="142.9404">2</text><text fill="#000000" font-family="sans-serif" font-size="13" lengthAdjust="spacing" textLength="74.4072" x="262.4355" y="142.9404">Filtra ficheiro</text><polygon fill="#181818" points="424.2354,188.4941,434.2354,192.4941,424.2354,196.4941,428.2354,192.4941" style="stroke:#181818;stroke-width:1.0;"/><line style="stroke:#181818;stroke-width:1.0;" x1="244.2056" x2="430.2354" y1="192.4941" y2="192.4941"/><text fill="#000000" font-family="sans-serif" font-size="13" font-weight="bold" lengthAdjust="spacing" textLength="7.23" x="251.2056" y="187.2314">3</text><text fill="#000000" font-family="sans-serif" font-size="13" lengthAdjust="spacing" textLength="78.0381" x="262.4355" y="187.2314">Envia ficheiro</text><polygon fill="#181818" points="626.2651,219.7852,636.2651,223.7852,626.2651,227.7852,630.2651,223.7852" style="stroke:#181818;stroke-width:1.0;"/><line style="stroke:#181818;stroke-width:1.0;" x1="446.2354" x2="632.2651" y1="223.7852" y2="223.7852"/><text fill="#000000" font-family="sans-serif" font-size="13" font-weight="bold" lengthAdjust="spacing" textLength="7.23" x="453.2354" y="218.5225">4</text><text fill="#000000" font-family="sans-serif" font-size="13" lengthAdjust="spacing" textLength="88.8799" x="464.4653" y="218.5225">Guarda ficheiro</text><polygon fill="#181818" points="457.2354,251.0762,447.2354,255.0762,457.2354,259.0762,453.2354,255.0762" style="stroke:#181818;stroke-width:1.0;"/><line style="stroke:#181818;stroke-width:1.0;stroke-dasharray:2.0,2.0;" x1="451.2354" x2="642.2651" y1="255.0762" y2="255.0762"/><text fill="#000000" font-family="sans-serif" font-size="13" font-weight="bold" lengthAdjust="spacing" textLength="7.23" x="463.2354" y="249.8135">5</text><text fill="#000000" font-family="sans-serif" font-size="13" lengthAdjust="spacing" textLength="156.7998" x="474.4653" y="249.8135">Mensagem de confirma&#231;&#227;o</text><polygon fill="#181818" points="255.2056,282.3672,245.2056,286.3672,255.2056,290.3672,251.2056,286.3672" style="stroke:#181818;stroke-width:1.0;"/><line style="stroke:#181818;stroke-width:1.0;stroke-dasharray:2.0,2.0;" x1="249.2056" x2="435.2354" y1="286.3672" y2="286.3672"/><text fill="#000000" font-family="sans-serif" font-size="13" font-weight="bold" lengthAdjust="spacing" textLength="7.23" x="261.2056" y="281.1045">6</text><text fill="#000000" font-family="sans-serif" font-size="13" lengthAdjust="spacing" textLength="156.7998" x="272.4355" y="281.1045">Mensagem de confirma&#231;&#227;o</text><polygon fill="#181818" points="53.1758,313.6582,43.1758,317.6582,53.1758,321.6582,49.1758,317.6582" style="stroke:#181818;stroke-width:1.0;"/><line style="stroke:#181818;stroke-width:1.0;stroke-dasharray:2.0,2.0;" x1="47.1758" x2="238.2056" y1="317.6582" y2="317.6582"/><text fill="#000000" font-family="sans-serif" font-size="13" font-weight="bold" lengthAdjust="spacing" textLength="7.23" x="59.1758" y="312.3955">7</text><text fill="#000000" font-family="sans-serif" font-size="13" lengthAdjust="spacing" textLength="156.7998" x="70.4058" y="312.3955">Mensagem de confirma&#231;&#227;o</text><!--SRC=[ZP31JiCm38RlUGfhzsht7IPD23WXa0eFuAKEM6gIAd5xsEjmu47sOZYRMh8Y92wHhNo__z_6KM8O_P6IELY92Tw4UpvXfoLc6BD-c06JiEK1Wy03ztGNWwJOztHXxDBz0bjA4rigLBwMfaF18sQ2JSjPo2Dq18VayKG1FGM9cuAxR0nQuGc5hYdA0ys-ieCTl3othplOElNAM_P3JDAKfX9NyIffivwaSIKXEBOVn2cQ6tW_nrVmFanSSOlFlE1CgiXbvHz7J5qzU57eZaeqDzEVA6Hy9r-keWaSwsNEN-VFQ3ggXJyswqN-dh3U_tBHVrfML_m6]--></g></svg>