<svg xmlns="http://www.w3.org/2000/svg" xmlns:xlink="http://www.w3.org/1999/xlink" contentStyleType="text/css" height="585px" preserveAspectRatio="none" style="width:1214px;height:585px;background:#FFFFFF;" version="1.1" viewBox="0 0 1214 585" width="1214.1px" zoomAndPan="magnify"><defs/><g><rect fill="#FFFFFF" height="418.5668" style="stroke:#181818;stroke-width:0.9;" width="9" x="28.9582" y="84.259"/><rect fill="#FFFFFF" height="389.5049" style="stroke:#181818;stroke-width:0.9;" width="9" x="283.9917" y="105.2209"/><rect fill="#FFFFFF" height="124.3477" style="stroke:#181818;stroke-width:0.9;" width="9" x="468.4179" y="133.3828"/><rect fill="#FFFFFF" height="180.6715" style="stroke:#181818;stroke-width:0.9;" width="9" x="564.9504" y="285.8924"/><rect fill="#FFFFFF" height="28.1619" style="stroke:#181818;stroke-width:0.9;" width="9" x="786.495" y="314.0543"/><rect fill="#FFFFFF" height="68.0238" style="stroke:#181818;stroke-width:0.9;" width="9" x="886.0874" y="161.5447"/><rect fill="#FFFFFF" height="68.0238" style="stroke:#181818;stroke-width:0.9;" width="9" x="1020.44" y="370.3781"/><line style="stroke:#181818;stroke-width:0.45;stroke-dasharray:5.0,5.0;" x1="33.3" x2="33.3" y1="75.259" y2="510.9258"/><line style="stroke:#181818;stroke-width:0.45;stroke-dasharray:5.0,5.0;" x1="288.374" x2="288.374" y1="75.259" y2="510.9258"/><line style="stroke:#181818;stroke-width:0.45;stroke-dasharray:5.0,5.0;" x1="472.3532" x2="472.3532" y1="75.259" y2="510.9258"/><line style="stroke:#181818;stroke-width:0.45;stroke-dasharray:5.0,5.0;" x1="568.8826" x2="568.8826" y1="75.259" y2="510.9258"/><line style="stroke:#181818;stroke-width:0.45;stroke-dasharray:5.0,5.0;" x1="790.1231" x2="790.1231" y1="75.259" y2="510.9258"/><line style="stroke:#181818;stroke-width:0.45;stroke-dasharray:5.0,5.0;" x1="889.9668" x2="889.9668" y1="75.259" y2="510.9258"/><line style="stroke:#181818;stroke-width:0.45;stroke-dasharray:5.0,5.0;" x1="1024.6794" x2="1024.6794" y1="75.259" y2="510.9258"/><text fill="#000000" font-family="sans-serif" font-size="12.6" lengthAdjust="spacing" textLength="52.5164" x="4.5" y="72.0967">Utilizador</text><ellipse cx="33.4582" cy="12.15" fill="#E2E2F0" rx="7.2" ry="7.2" style="stroke:#181818;stroke-width:0.45;"/><path d="M33.4582,19.35 L33.4582,43.65 M21.7582,26.55 L45.1582,26.55 M33.4582,43.65 L21.7582,57.15 M33.4582,43.65 L45.1582,57.15 " fill="none" style="stroke:#181818;stroke-width:0.45;"/><text fill="#000000" font-family="sans-serif" font-size="12.6" lengthAdjust="spacing" textLength="52.5164" x="4.5" y="523.6225">Utilizador</text><ellipse cx="33.4582" cy="534.4348" fill="#E2E2F0" rx="7.2" ry="7.2" style="stroke:#181818;stroke-width:0.45;"/><path d="M33.4582,541.6348 L33.4582,565.9348 M21.7582,548.8348 L45.1582,548.8348 M33.4582,565.9348 L21.7582,579.4348 M33.4582,565.9348 L45.1582,579.4348 " fill="none" style="stroke:#181818;stroke-width:0.45;"/><rect fill="#E2E2F0" height="29.359" rx="2.25" ry="2.25" style="stroke:#181818;stroke-width:0.45;" width="93.8355" x="241.574" y="45"/><text fill="#000000" font-family="sans-serif" font-size="12.6" lengthAdjust="spacing" textLength="81.2355" x="247.874" y="64.8967">ChatController</text><rect fill="#E2E2F0" height="29.359" rx="2.25" ry="2.25" style="stroke:#181818;stroke-width:0.45;" width="93.8355" x="241.574" y="510.0258"/><text fill="#000000" font-family="sans-serif" font-size="12.6" lengthAdjust="spacing" textLength="81.2355" x="247.874" y="529.9225">ChatController</text><rect fill="#E2E2F0" height="29.359" rx="2.25" ry="2.25" style="stroke:#181818;stroke-width:0.45;" width="87.5294" x="429.1532" y="45"/><text fill="#000000" font-family="sans-serif" font-size="12.6" lengthAdjust="spacing" textLength="74.9294" x="435.4532" y="64.8967">AzureService</text><rect fill="#E2E2F0" height="29.359" rx="2.25" ry="2.25" style="stroke:#181818;stroke-width:0.45;" width="87.5294" x="429.1532" y="510.0258"/><text fill="#000000" font-family="sans-serif" font-size="12.6" lengthAdjust="spacing" textLength="74.9294" x="435.4532" y="529.9225">AzureService</text><rect fill="#E2E2F0" height="29.359" rx="2.25" ry="2.25" style="stroke:#181818;stroke-width:0.45;" width="87.5355" x="525.6826" y="45"/><text fill="#000000" font-family="sans-serif" font-size="12.6" lengthAdjust="spacing" textLength="74.9355" x="531.9826" y="64.8967">Neo4jService</text><rect fill="#E2E2F0" height="29.359" rx="2.25" ry="2.25" style="stroke:#181818;stroke-width:0.45;" width="87.5355" x="525.6826" y="510.0258"/><text fill="#000000" font-family="sans-serif" font-size="12.6" lengthAdjust="spacing" textLength="74.9355" x="531.9826" y="529.9225">Neo4jService</text><rect fill="#E2E2F0" height="29.359" rx="2.25" ry="2.25" style="stroke:#181818;stroke-width:0.45;" width="91.7438" x="745.1231" y="45"/><text fill="#000000" font-family="sans-serif" font-size="12.6" lengthAdjust="spacing" textLength="79.1438" x="751.4231" y="64.8967">Azure/OpenAI</text><rect fill="#E2E2F0" height="29.359" rx="2.25" ry="2.25" style="stroke:#181818;stroke-width:0.45;" width="91.7438" x="745.1231" y="510.0258"/><text fill="#000000" font-family="sans-serif" font-size="12.6" lengthAdjust="spacing" textLength="79.1438" x="751.4231" y="529.9225">Azure/OpenAI</text><text fill="#000000" font-family="sans-serif" font-size="12.6" lengthAdjust="spacing" textLength="84.041" x="845.8668" y="72.0967">AzureAiSearch</text><path d="M874.3874,26.1 C874.3874,17.1 890.5874,17.1 890.5874,17.1 C890.5874,17.1 906.7874,17.1 906.7874,26.1 L906.7874,49.5 C906.7874,58.5 890.5874,58.5 890.5874,58.5 C890.5874,58.5 874.3874,58.5 874.3874,49.5 L874.3874,26.1 " fill="#E2E2F0" style="stroke:#181818;stroke-width:1.35;"/><path d="M874.3874,26.1 C874.3874,35.1 890.5874,35.1 890.5874,35.1 C890.5874,35.1 906.7874,35.1 906.7874,26.1 " fill="none" style="stroke:#181818;stroke-width:1.35;"/><text fill="#000000" font-family="sans-serif" font-size="12.6" lengthAdjust="spacing" textLength="84.041" x="845.8668" y="523.6225">AzureAiSearch</text><path d="M874.3874,535.7848 C874.3874,526.7848 890.5874,526.7848 890.5874,526.7848 C890.5874,526.7848 906.7874,526.7848 906.7874,535.7848 L906.7874,559.1848 C906.7874,568.1848 890.5874,568.1848 890.5874,568.1848 C890.5874,568.1848 874.3874,568.1848 874.3874,559.1848 L874.3874,535.7848 " fill="#E2E2F0" style="stroke:#181818;stroke-width:1.35;"/><path d="M874.3874,535.7848 C874.3874,544.7848 890.5874,544.7848 890.5874,544.7848 C890.5874,544.7848 906.7874,544.7848 906.7874,535.7848 " fill="none" style="stroke:#181818;stroke-width:1.35;"/><text fill="#000000" font-family="sans-serif" font-size="12.6" lengthAdjust="spacing" textLength="32.9212" x="1005.7794" y="72.0967">Neo4j</text><path d="M1008.74,26.1 C1008.74,17.1 1024.94,17.1 1024.94,17.1 C1024.94,17.1 1041.14,17.1 1041.14,26.1 L1041.14,49.5 C1041.14,58.5 1024.94,58.5 1024.94,58.5 C1024.94,58.5 1008.74,58.5 1008.74,49.5 L1008.74,26.1 " fill="#E2E2F0" style="stroke:#181818;stroke-width:1.35;"/><path d="M1008.74,26.1 C1008.74,35.1 1024.94,35.1 1024.94,35.1 C1024.94,35.1 1041.14,35.1 1041.14,26.1 " fill="none" style="stroke:#181818;stroke-width:1.35;"/><text fill="#000000" font-family="sans-serif" font-size="12.6" lengthAdjust="spacing" textLength="32.9212" x="1005.7794" y="523.6225">Neo4j</text><path d="M1008.74,535.7848 C1008.74,526.7848 1024.94,526.7848 1024.94,526.7848 C1024.94,526.7848 1041.14,526.7848 1041.14,535.7848 L1041.14,559.1848 C1041.14,568.1848 1024.94,568.1848 1024.94,568.1848 C1024.94,568.1848 1008.74,568.1848 1008.74,559.1848 L1008.74,535.7848 " fill="#E2E2F0" style="stroke:#181818;stroke-width:1.35;"/><path d="M1008.74,535.7848 C1008.74,544.7848 1024.94,544.7848 1024.94,544.7848 C1024.94,544.7848 1041.14,544.7848 1041.14,535.7848 " fill="none" style="stroke:#181818;stroke-width:1.35;"/><rect fill="#FFFFFF" height="418.5668" style="stroke:#181818;stroke-width:0.9;" width="9" x="28.9582" y="84.259"/><rect fill="#FFFFFF" height="389.5049" style="stroke:#181818;stroke-width:0.9;" width="9" x="283.9917" y="105.2209"/><rect fill="#FFFFFF" height="124.3477" style="stroke:#181818;stroke-width:0.9;" width="9" x="468.4179" y="133.3828"/><rect fill="#FFFFFF" height="180.6715" style="stroke:#181818;stroke-width:0.9;" width="9" x="564.9504" y="285.8924"/><rect fill="#FFFFFF" height="28.1619" style="stroke:#181818;stroke-width:0.9;" width="9" x="786.495" y="314.0543"/><rect fill="#FFFFFF" height="68.0238" style="stroke:#181818;stroke-width:0.9;" width="9" x="886.0874" y="161.5447"/><rect fill="#FFFFFF" height="68.0238" style="stroke:#181818;stroke-width:0.9;" width="9" x="1020.44" y="370.3781"/><polygon fill="#181818" points="273.1917,101.6209,282.1917,105.2209,273.1917,108.8209,276.7917,105.2209" style="stroke:#181818;stroke-width:0.9;"/><line style="stroke:#181818;stroke-width:0.9;" x1="37.9582" x2="278.5917" y1="105.2209" y2="105.2209"/><text fill="#000000" font-family="sans-serif" font-size="11.7" font-weight="bold" lengthAdjust="spacing" textLength="6.507" x="44.2582" y="100.4845">1</text><text fill="#000000" font-family="sans-serif" font-size="11.7" lengthAdjust="spacing" textLength="218.8266" x="54.3652" y="100.4845">POST: /chat/import-file?filename=&lt;name&gt;</text><polygon fill="#181818" points="457.6179,129.7828,466.6179,133.3828,457.6179,136.9828,461.2179,133.3828" style="stroke:#181818;stroke-width:0.9;"/><line style="stroke:#181818;stroke-width:0.9;" x1="292.9917" x2="463.0179" y1="133.3828" y2="133.3828"/><text fill="#000000" font-family="sans-serif" font-size="11.7" font-weight="bold" lengthAdjust="spacing" textLength="6.507" x="299.2917" y="128.6464">2</text><text fill="#000000" font-family="sans-serif" font-size="11.7" lengthAdjust="spacing" textLength="74.1305" x="309.3987" y="128.6464">Envia Ficheiro</text><polygon fill="#181818" points="875.2874,157.9447,884.2874,161.5447,875.2874,165.1447,878.8874,161.5447" style="stroke:#181818;stroke-width:0.9;"/><line style="stroke:#181818;stroke-width:0.9;" x1="477.4179" x2="880.6874" y1="161.5447" y2="161.5447"/><text fill="#000000" font-family="sans-serif" font-size="11.7" font-weight="bold" lengthAdjust="spacing" textLength="6.507" x="483.7179" y="156.8083">3</text><text fill="#000000" font-family="sans-serif" font-size="11.7" lengthAdjust="spacing" textLength="74.1305" x="493.8249" y="156.8083">Envia Ficheiro</text><line style="stroke:#181818;stroke-width:0.9;stroke-dasharray:2.0,2.0;" x1="895.0874" x2="932.8874" y1="189.7066" y2="189.7066"/><line style="stroke:#181818;stroke-width:0.9;stroke-dasharray:2.0,2.0;" x1="932.8874" x2="932.8874" y1="189.7066" y2="201.4066"/><line style="stroke:#181818;stroke-width:0.9;stroke-dasharray:2.0,2.0;" x1="895.9874" x2="932.8874" y1="201.4066" y2="201.4066"/><polygon fill="#181818" points="904.9874,197.8066,895.9874,201.4066,904.9874,205.0066,901.3874,201.4066" style="stroke:#181818;stroke-width:0.9;"/><text fill="#000000" font-family="sans-serif" font-size="11.7" font-weight="bold" lengthAdjust="spacing" textLength="6.507" x="901.3874" y="184.9702">4</text><text fill="#000000" font-family="sans-serif" font-size="11.7" lengthAdjust="spacing" textLength="93.6457" x="911.4943" y="184.9702">Guarda o Ficheiro</text><polygon fill="#181818" points="487.3179,225.9686,478.3179,229.5686,487.3179,233.1686,483.7179,229.5686" style="stroke:#181818;stroke-width:0.9;"/><line style="stroke:#181818;stroke-width:0.9;stroke-dasharray:2.0,2.0;" x1="481.9179" x2="889.6874" y1="229.5686" y2="229.5686"/><text fill="#000000" font-family="sans-serif" font-size="11.7" font-weight="bold" lengthAdjust="spacing" textLength="6.507" x="492.7179" y="224.8321">5</text><text fill="#000000" font-family="sans-serif" font-size="11.7" lengthAdjust="spacing" textLength="143.7192" x="502.8249" y="224.8321">Mensagem de Confirma&#231;&#227;o</text><polygon fill="#181818" points="302.8917,254.1305,293.8917,257.7305,302.8917,261.3305,299.2917,257.7305" style="stroke:#181818;stroke-width:0.9;"/><line style="stroke:#181818;stroke-width:0.9;stroke-dasharray:2.0,2.0;" x1="297.4917" x2="472.0179" y1="257.7305" y2="257.7305"/><text fill="#000000" font-family="sans-serif" font-size="11.7" font-weight="bold" lengthAdjust="spacing" textLength="6.507" x="308.2917" y="252.994">6</text><text fill="#000000" font-family="sans-serif" font-size="11.7" lengthAdjust="spacing" textLength="143.7192" x="318.3987" y="252.994">Mensagem de Confirma&#231;&#227;o</text><polygon fill="#181818" points="554.1504,282.2924,563.1504,285.8924,554.1504,289.4924,557.7504,285.8924" style="stroke:#181818;stroke-width:0.9;"/><line style="stroke:#181818;stroke-width:0.9;" x1="292.9917" x2="559.5504" y1="285.8924" y2="285.8924"/><text fill="#000000" font-family="sans-serif" font-size="11.7" font-weight="bold" lengthAdjust="spacing" textLength="6.507" x="299.2917" y="281.156">7</text><text fill="#000000" font-family="sans-serif" font-size="11.7" lengthAdjust="spacing" textLength="74.1305" x="309.3987" y="281.156">Envia Ficheiro</text><polygon fill="#181818" points="775.695,310.4543,784.695,314.0543,775.695,317.6543,779.295,314.0543" style="stroke:#181818;stroke-width:0.9;"/><line style="stroke:#181818;stroke-width:0.9;" x1="573.9504" x2="781.095" y1="314.0543" y2="314.0543"/><text fill="#000000" font-family="sans-serif" font-size="11.7" font-weight="bold" lengthAdjust="spacing" textLength="6.507" x="580.2504" y="309.3179">8</text><text fill="#000000" font-family="sans-serif" font-size="11.7" lengthAdjust="spacing" textLength="185.3376" x="590.3574" y="309.3179">Envia Ficheiro para Processamento</text><polygon fill="#181818" points="583.8504,338.6162,574.8504,342.2162,583.8504,345.8162,580.2504,342.2162" style="stroke:#181818;stroke-width:0.9;"/><line style="stroke:#181818;stroke-width:0.9;" x1="578.4504" x2="790.095" y1="342.2162" y2="342.2162"/><text fill="#000000" font-family="sans-serif" font-size="11.7" font-weight="bold" lengthAdjust="spacing" textLength="6.507" x="589.2504" y="337.4798">9</text><text fill="#000000" font-family="sans-serif" font-size="11.7" lengthAdjust="spacing" textLength="139.166" x="599.3574" y="337.4798">Envia Ficheiro Processado</text><polygon fill="#181818" points="1009.64,366.7781,1018.64,370.3781,1009.64,373.9781,1013.24,370.3781" style="stroke:#181818;stroke-width:0.9;"/><line style="stroke:#181818;stroke-width:0.9;" x1="573.9504" x2="1015.04" y1="370.3781" y2="370.3781"/><text fill="#000000" font-family="sans-serif" font-size="11.7" font-weight="bold" lengthAdjust="spacing" textLength="13.014" x="580.2504" y="365.6417">10</text><text fill="#000000" font-family="sans-serif" font-size="11.7" lengthAdjust="spacing" textLength="146.3414" x="596.8644" y="365.6417">Envia Entidades e Rela&#231;&#245;es</text><line style="stroke:#181818;stroke-width:0.9;stroke-dasharray:2.0,2.0;" x1="1029.44" x2="1067.24" y1="398.54" y2="398.54"/><line style="stroke:#181818;stroke-width:0.9;stroke-dasharray:2.0,2.0;" x1="1067.24" x2="1067.24" y1="398.54" y2="410.24"/><line style="stroke:#181818;stroke-width:0.9;stroke-dasharray:2.0,2.0;" x1="1030.34" x2="1067.24" y1="410.24" y2="410.24"/><polygon fill="#181818" points="1039.34,406.64,1030.34,410.24,1039.34,413.84,1035.74,410.24" style="stroke:#181818;stroke-width:0.9;"/><text fill="#000000" font-family="sans-serif" font-size="11.7" font-weight="bold" lengthAdjust="spacing" textLength="13.014" x="1035.74" y="393.8036">11</text><text fill="#000000" font-family="sans-serif" font-size="11.7" lengthAdjust="spacing" textLength="156.099" x="1052.354" y="393.8036">Guarda Entidades e Rela&#231;&#245;es</text><polygon fill="#181818" points="583.8504,434.802,574.8504,438.402,583.8504,442.002,580.2504,438.402" style="stroke:#181818;stroke-width:0.9;"/><line style="stroke:#181818;stroke-width:0.9;stroke-dasharray:2.0,2.0;" x1="578.4504" x2="1024.04" y1="438.402" y2="438.402"/><text fill="#000000" font-family="sans-serif" font-size="11.7" font-weight="bold" lengthAdjust="spacing" textLength="13.014" x="589.2504" y="433.6655">12</text><text fill="#000000" font-family="sans-serif" font-size="11.7" lengthAdjust="spacing" textLength="143.7192" x="605.8644" y="433.6655">Mensagem de Confirma&#231;&#227;o</text><polygon fill="#181818" points="302.8917,462.9639,293.8917,466.5639,302.8917,470.1639,299.2917,466.5639" style="stroke:#181818;stroke-width:0.9;"/><line style="stroke:#181818;stroke-width:0.9;stroke-dasharray:2.0,2.0;" x1="297.4917" x2="568.5504" y1="466.5639" y2="466.5639"/><text fill="#000000" font-family="sans-serif" font-size="11.7" font-weight="bold" lengthAdjust="spacing" textLength="13.014" x="308.2917" y="461.8274">13</text><text fill="#000000" font-family="sans-serif" font-size="11.7" lengthAdjust="spacing" textLength="143.7192" x="324.9057" y="461.8274">Mensagem de Confirma&#231;&#227;o</text><polygon fill="#181818" points="47.8582,491.1258,38.8582,494.7258,47.8582,498.3258,44.2582,494.7258" style="stroke:#181818;stroke-width:0.9;"/><line style="stroke:#181818;stroke-width:0.9;stroke-dasharray:2.0,2.0;" x1="42.4582" x2="287.5917" y1="494.7258" y2="494.7258"/><text fill="#000000" font-family="sans-serif" font-size="11.7" font-weight="bold" lengthAdjust="spacing" textLength="13.014" x="53.2582" y="489.9894">14</text><text fill="#000000" font-family="sans-serif" font-size="11.7" lengthAdjust="spacing" textLength="143.7192" x="69.8722" y="489.9894">Mensagem de Confirma&#231;&#227;o</text><!--SRC=[dPFFJW8n4CRlVOe9TyB54r7CXg3ne13H1nZQGMfssqtRvS3hUF09V09UpEvVsWKKlJJCyislCzzCiN1Q5TcA34kuqmPUdKpb3eN_YHOAw_zWEHedkSnHEPXkq4srSaQdALKQtaMHCDaLXfPajf9JASCWZeHFfA_U0w4AulZkGSKSpNDIoSEWWzOnOm8Thj1Ieqlaaj3mpK7OVWcKrUM3xbh6a3kvHKTrw-K1mqdG8unXCL- -Z674lHCZcUNQkE5QfdHR7Wepkhakpqd02YnY0Sg3GrSyUgQs4k5EyWr9em-0oBmefsMqlHr3UfJEX3XjU09qNw0H23eew7JEeO57KXRVA0D1uDTaBKs6-y_zXsQ2pjJHwwVlzkN4rf_OuN2TVd0utheegUsothCZ1lWLHLWOpSbQFtZb-eDh5ZI4_5POnnF7VRRxtY-oYZlIJ3afK905WcTAIy- -oFOQhXcLwMrsC_GpwJtz7mVVlB6uy7yDF1vNE76FgrxjXQ3WQNu3]--></g></svg>