<svg xmlns="http://www.w3.org/2000/svg" xmlns:xlink="http://www.w3.org/1999/xlink" contentStyleType="text/css" height="558px" preserveAspectRatio="none" style="width:1143px;height:558px;background:#FFFFFF;" version="1.1" viewBox="0 0 1143 558" width="1143px" zoomAndPan="magnify"><defs/><g><rect fill="#FFFFFF" height="373.2012" style="stroke:#181818;stroke-width:1.0;" width="10" x="32.1758" y="93.6211"/><rect fill="#FFFFFF" height="340.9102" style="stroke:#181818;stroke-width:1.0;" width="10" x="315.5464" y="116.9121"/><rect fill="#FFFFFF" height="278.3281" style="stroke:#181818;stroke-width:1.0;" width="10" x="520.4644" y="148.2031"/><rect fill="#FFFFFF" height="46.291" style="stroke:#181818;stroke-width:1.0;" width="10" x="812.855" y="250.0762"/><rect fill="#FFFFFF" height="75.582" style="stroke:#181818;stroke-width:1.0;" width="10" x="923.5269" y="319.6582"/><rect fill="none" height="81.873" style="stroke:#000000;stroke-width:1.5;" width="411.9902" x="466.8335" y="207.4941"/><line style="stroke:#181818;stroke-width:0.5;stroke-dasharray:5.0,5.0;" x1="37" x2="37" y1="83.6211" y2="475.8223"/><line style="stroke:#181818;stroke-width:0.5;stroke-dasharray:5.0,5.0;" x1="320.4155" x2="320.4155" y1="83.6211" y2="475.8223"/><line style="stroke:#181818;stroke-width:0.5;stroke-dasharray:5.0,5.0;" x1="524.8335" x2="524.8335" y1="83.6211" y2="475.8223"/><line style="stroke:#181818;stroke-width:0.5;stroke-dasharray:5.0,5.0;" x1="816.8862" x2="816.8862" y1="83.6211" y2="475.8223"/><line style="stroke:#181818;stroke-width:0.5;stroke-dasharray:5.0,5.0;" x1="927.8237" x2="927.8237" y1="83.6211" y2="475.8223"/><text fill="#000000" font-family="sans-serif" font-size="14" lengthAdjust="spacing" textLength="58.3516" x="5" y="80.1074">Utilizador</text><ellipse cx="37.1758" cy="13.5" fill="#E2E2F0" rx="8" ry="8" style="stroke:#181818;stroke-width:0.5;"/><path d="M37.1758,21.5 L37.1758,48.5 M24.1758,29.5 L50.1758,29.5 M37.1758,48.5 L24.1758,63.5 M37.1758,48.5 L50.1758,63.5 " fill="none" style="stroke:#181818;stroke-width:0.5;"/><text fill="#000000" font-family="sans-serif" font-size="14" lengthAdjust="spacing" textLength="58.3516" x="5" y="489.9297">Utilizador</text><ellipse cx="37.1758" cy="501.9434" fill="#E2E2F0" rx="8" ry="8" style="stroke:#181818;stroke-width:0.5;"/><path d="M37.1758,509.9434 L37.1758,536.9434 M24.1758,517.9434 L50.1758,517.9434 M37.1758,536.9434 L24.1758,551.9434 M37.1758,536.9434 L50.1758,551.9434 " fill="none" style="stroke:#181818;stroke-width:0.5;"/><rect fill="#E2E2F0" height="32.6211" rx="2.5" ry="2.5" style="stroke:#181818;stroke-width:0.5;" width="104.2617" x="268.4155" y="50"/><text fill="#000000" font-family="sans-serif" font-size="14" lengthAdjust="spacing" textLength="90.2617" x="275.4155" y="72.1074">ChatController</text><rect fill="#E2E2F0" height="32.6211" rx="2.5" ry="2.5" style="stroke:#181818;stroke-width:0.5;" width="104.2617" x="268.4155" y="474.8223"/><text fill="#000000" font-family="sans-serif" font-size="14" lengthAdjust="spacing" textLength="90.2617" x="275.4155" y="496.9297">ChatController</text><rect fill="#E2E2F0" height="32.6211" rx="2.5" ry="2.5" style="stroke:#181818;stroke-width:0.5;" width="97.2617" x="476.8335" y="50"/><text fill="#000000" font-family="sans-serif" font-size="14" lengthAdjust="spacing" textLength="83.2617" x="483.8335" y="72.1074">Neo4jService</text><rect fill="#E2E2F0" height="32.6211" rx="2.5" ry="2.5" style="stroke:#181818;stroke-width:0.5;" width="97.2617" x="476.8335" y="474.8223"/><text fill="#000000" font-family="sans-serif" font-size="14" lengthAdjust="spacing" textLength="83.2617" x="483.8335" y="496.9297">Neo4jService</text><rect fill="#E2E2F0" height="32.6211" rx="2.5" ry="2.5" style="stroke:#181818;stroke-width:0.5;" width="101.9375" x="766.8862" y="50"/><text fill="#000000" font-family="sans-serif" font-size="14" lengthAdjust="spacing" textLength="87.9375" x="773.8862" y="72.1074">Azure/OpenAI</text><rect fill="#E2E2F0" height="32.6211" rx="2.5" ry="2.5" style="stroke:#181818;stroke-width:0.5;" width="101.9375" x="766.8862" y="474.8223"/><text fill="#000000" font-family="sans-serif" font-size="14" lengthAdjust="spacing" textLength="87.9375" x="773.8862" y="496.9297">Azure/OpenAI</text><text fill="#000000" font-family="sans-serif" font-size="14" lengthAdjust="spacing" textLength="93.4063" x="878.8237" y="80.1074">Base de dados</text><path d="M910.5269,29 C910.5269,19 928.5269,19 928.5269,19 C928.5269,19 946.5269,19 946.5269,29 L946.5269,55 C946.5269,65 928.5269,65 928.5269,65 C928.5269,65 910.5269,65 910.5269,55 L910.5269,29 " fill="#E2E2F0" style="stroke:#181818;stroke-width:1.5;"/><path d="M910.5269,29 C910.5269,39 928.5269,39 928.5269,39 C928.5269,39 946.5269,39 946.5269,29 " fill="none" style="stroke:#181818;stroke-width:1.5;"/><text fill="#000000" font-family="sans-serif" font-size="14" lengthAdjust="spacing" textLength="93.4063" x="878.8237" y="489.9297">Base de dados</text><path d="M910.5269,503.4434 C910.5269,493.4434 928.5269,493.4434 928.5269,493.4434 C928.5269,493.4434 946.5269,493.4434 946.5269,503.4434 L946.5269,529.4434 C946.5269,539.4434 928.5269,539.4434 928.5269,539.4434 C928.5269,539.4434 910.5269,539.4434 910.5269,529.4434 L910.5269,503.4434 " fill="#E2E2F0" style="stroke:#181818;stroke-width:1.5;"/><path d="M910.5269,503.4434 C910.5269,513.4434 928.5269,513.4434 928.5269,513.4434 C928.5269,513.4434 946.5269,513.4434 946.5269,503.4434 " fill="none" style="stroke:#181818;stroke-width:1.5;"/><rect fill="#FFFFFF" height="373.2012" style="stroke:#181818;stroke-width:1.0;" width="10" x="32.1758" y="93.6211"/><rect fill="#FFFFFF" height="340.9102" style="stroke:#181818;stroke-width:1.0;" width="10" x="315.5464" y="116.9121"/><rect fill="#FFFFFF" height="278.3281" style="stroke:#181818;stroke-width:1.0;" width="10" x="520.4644" y="148.2031"/><rect fill="#FFFFFF" height="46.291" style="stroke:#181818;stroke-width:1.0;" width="10" x="812.855" y="250.0762"/><rect fill="#FFFFFF" height="75.582" style="stroke:#181818;stroke-width:1.0;" width="10" x="923.5269" y="319.6582"/><polygon fill="#181818" points="303.5464,112.9121,313.5464,116.9121,303.5464,120.9121,307.5464,116.9121" style="stroke:#181818;stroke-width:1.0;"/><line style="stroke:#181818;stroke-width:1.0;" x1="42.1758" x2="309.5464" y1="116.9121" y2="116.9121"/><text fill="#000000" font-family="sans-serif" font-size="13" font-weight="bold" lengthAdjust="spacing" textLength="7.23" x="49.1758" y="111.6494">1</text><text fill="#000000" font-family="sans-serif" font-size="13" lengthAdjust="spacing" textLength="243.1406" x="60.4058" y="111.6494">POST: /chat/import-file?filename=&lt;name&gt;</text><polygon fill="#181818" points="508.4644,144.2031,518.4644,148.2031,508.4644,152.2031,512.4644,148.2031" style="stroke:#181818;stroke-width:1.0;"/><line style="stroke:#181818;stroke-width:1.0;" x1="325.5464" x2="514.4644" y1="148.2031" y2="148.2031"/><text fill="#000000" font-family="sans-serif" font-size="13" font-weight="bold" lengthAdjust="spacing" textLength="7.23" x="332.5464" y="142.9404">2</text><text fill="#000000" font-family="sans-serif" font-size="13" lengthAdjust="spacing" textLength="82.3672" x="343.7764" y="142.9404">Envia Ficheiro</text><line style="stroke:#181818;stroke-width:1.0;stroke-dasharray:2.0,2.0;" x1="530.4644" x2="572.4644" y1="179.4941" y2="179.4941"/><line style="stroke:#181818;stroke-width:1.0;stroke-dasharray:2.0,2.0;" x1="572.4644" x2="572.4644" y1="179.4941" y2="192.4941"/><line style="stroke:#181818;stroke-width:1.0;stroke-dasharray:2.0,2.0;" x1="531.4644" x2="572.4644" y1="192.4941" y2="192.4941"/><polygon fill="#181818" points="541.4644,188.4941,531.4644,192.4941,541.4644,196.4941,537.4644,192.4941" style="stroke:#181818;stroke-width:1.0;"/><text fill="#000000" font-family="sans-serif" font-size="13" font-weight="bold" lengthAdjust="spacing" textLength="7.23" x="537.4644" y="174.2314">3</text><text fill="#000000" font-family="sans-serif" font-size="13" lengthAdjust="spacing" textLength="228.3062" x="548.6943" y="174.2314">Divide Ficheiro em chunks (tamanho N)</text><path d="M466.8335,207.4941 L539.2681,207.4941 L539.2681,216.7852 L529.2681,226.7852 L466.8335,226.7852 L466.8335,207.4941 " fill="#EEEEEE" style="stroke:#000000;stroke-width:1.5;"/><rect fill="none" height="81.873" style="stroke:#000000;stroke-width:1.5;" width="411.9902" x="466.8335" y="207.4941"/><text fill="#000000" font-family="sans-serif" font-size="13" font-weight="bold" lengthAdjust="spacing" textLength="27.4346" x="481.8335" y="222.5225">loop</text><text fill="#000000" font-family="sans-serif" font-size="11" font-weight="bold" lengthAdjust="spacing" textLength="220.0698" x="554.2681" y="221.3643">[at&#233; serem processados todos os chunks]</text><polygon fill="#181818" points="800.855,246.0762,810.855,250.0762,800.855,254.0762,804.855,250.0762" style="stroke:#181818;stroke-width:1.0;"/><line style="stroke:#181818;stroke-width:1.0;" x1="530.4644" x2="806.855" y1="250.0762" y2="250.0762"/><text fill="#000000" font-family="sans-serif" font-size="13" font-weight="bold" lengthAdjust="spacing" textLength="7.23" x="537.4644" y="244.8135">4</text><text fill="#000000" font-family="sans-serif" font-size="13" lengthAdjust="spacing" textLength="252.1606" x="548.6943" y="244.8135">Processa Informa&#231;&#227;o Conforme Necess&#225;rio</text><polygon fill="#181818" points="541.4644,277.3672,531.4644,281.3672,541.4644,285.3672,537.4644,281.3672" style="stroke:#181818;stroke-width:1.0;"/><line style="stroke:#181818;stroke-width:1.0;stroke-dasharray:2.0,2.0;" x1="535.4644" x2="811.855" y1="281.3672" y2="281.3672"/><text fill="#000000" font-family="sans-serif" font-size="13" font-weight="bold" lengthAdjust="spacing" textLength="7.23" x="547.4644" y="276.1045">5</text><text fill="#000000" font-family="sans-serif" font-size="13" lengthAdjust="spacing" textLength="145.9707" x="558.6943" y="276.1045">Envia Chunk Processado</text><polygon fill="#181818" points="911.5269,315.6582,921.5269,319.6582,911.5269,323.6582,915.5269,319.6582" style="stroke:#181818;stroke-width:1.0;"/><line style="stroke:#181818;stroke-width:1.0;" x1="530.4644" x2="917.5269" y1="319.6582" y2="319.6582"/><text fill="#000000" font-family="sans-serif" font-size="13" font-weight="bold" lengthAdjust="spacing" textLength="7.23" x="537.4644" y="314.3955">6</text><text fill="#000000" font-family="sans-serif" font-size="13" lengthAdjust="spacing" textLength="173.4243" x="548.6943" y="314.3955">Envia Informa&#231;&#227;o Processada</text><line style="stroke:#181818;stroke-width:1.0;stroke-dasharray:2.0,2.0;" x1="933.5269" x2="975.5269" y1="350.9492" y2="350.9492"/><line style="stroke:#181818;stroke-width:1.0;stroke-dasharray:2.0,2.0;" x1="975.5269" x2="975.5269" y1="350.9492" y2="363.9492"/><line style="stroke:#181818;stroke-width:1.0;stroke-dasharray:2.0,2.0;" x1="934.5269" x2="975.5269" y1="363.9492" y2="363.9492"/><polygon fill="#181818" points="944.5269,359.9492,934.5269,363.9492,944.5269,367.9492,940.5269,363.9492" style="stroke:#181818;stroke-width:1.0;"/><text fill="#000000" font-family="sans-serif" font-size="13" font-weight="bold" lengthAdjust="spacing" textLength="7.23" x="940.5269" y="345.6865">7</text><text fill="#000000" font-family="sans-serif" font-size="13" lengthAdjust="spacing" textLength="184.2661" x="951.7568" y="345.6865">Guarda Informa&#231;&#227;o Processada</text><polygon fill="#181818" points="541.4644,391.2402,531.4644,395.2402,541.4644,399.2402,537.4644,395.2402" style="stroke:#181818;stroke-width:1.0;"/><line style="stroke:#181818;stroke-width:1.0;stroke-dasharray:2.0,2.0;" x1="535.4644" x2="927.5269" y1="395.2402" y2="395.2402"/><text fill="#000000" font-family="sans-serif" font-size="13" font-weight="bold" lengthAdjust="spacing" textLength="7.23" x="547.4644" y="389.9775">8</text><text fill="#000000" font-family="sans-serif" font-size="13" lengthAdjust="spacing" textLength="159.688" x="558.6943" y="389.9775">Mensagem de Confirma&#231;&#227;o</text><polygon fill="#181818" points="336.5464,422.5313,326.5464,426.5313,336.5464,430.5313,332.5464,426.5313" style="stroke:#181818;stroke-width:1.0;"/><line style="stroke:#181818;stroke-width:1.0;stroke-dasharray:2.0,2.0;" x1="330.5464" x2="524.4644" y1="426.5313" y2="426.5313"/><text fill="#000000" font-family="sans-serif" font-size="13" font-weight="bold" lengthAdjust="spacing" textLength="7.23" x="342.5464" y="421.2686">9</text><text fill="#000000" font-family="sans-serif" font-size="13" lengthAdjust="spacing" textLength="159.688" x="353.7764" y="421.2686">Mensagem de Confirma&#231;&#227;o</text><polygon fill="#181818" points="53.1758,453.8223,43.1758,457.8223,53.1758,461.8223,49.1758,457.8223" style="stroke:#181818;stroke-width:1.0;"/><line style="stroke:#181818;stroke-width:1.0;stroke-dasharray:2.0,2.0;" x1="47.1758" x2="319.5464" y1="457.8223" y2="457.8223"/><text fill="#000000" font-family="sans-serif" font-size="13" font-weight="bold" lengthAdjust="spacing" textLength="14.46" x="59.1758" y="452.5596">10</text><text fill="#000000" font-family="sans-serif" font-size="13" lengthAdjust="spacing" textLength="159.688" x="77.6357" y="452.5596">Mensagem de Confirma&#231;&#227;o</text><!--SRC=[ZL9BJiCm4Dtx5AEkO15rmwg2eb8-we8MgN20YJqbXiIE72UBtWQnG9mZ5sFShzDIgP8roiHldj-R6QozDNMHaXCZwQs3DwzplKJ5drX1NV65AD5vBNM9niCuGp-snZkRvxJ2o5tM0Kx9NdtCoJLQKe2PAEzIzaRBsb5_Lf8PJNe1Y-77EXT2eSSKAuBUNOYA3ykhLa2L2e7IwmOzhSM60CamKWK3U9dDNmVGbwozhulIEfyiT4wt8HWiwEOwn6745PaI4HKJnpwO-i4q6k5Houoqitk2hjrEKNBCSgyRpSQsD405oAmsdnLSU2pGP1QcboAtjWJqxI-mIOQKpagggj0Dy3P4FkkwWnU7SKj3GpQLC34BwmfiVzfl2ppNa17FBjosNqv7ZkAXn6p9gQQCWvBTKyeACWg21w7eNzOZqIhTaNM4xZXnBuzNWU79jkgfHgTEbssW1xgVoLJupftbMOHcw6rfh3ZitD4yE-js5artGU8TOxhL5fz95Atg7m00]--></g></svg>