<svg xmlns="http://www.w3.org/2000/svg" xmlns:xlink="http://www.w3.org/1999/xlink" contentStyleType="text/css" height="687px" preserveAspectRatio="none" style="width:804px;height:687px;background:#FFFFFF;" version="1.1" viewBox="0 0 804 687" width="804px" zoomAndPan="magnify"><title>Extra&#231;&#227;o de Entidades e Rela&#231;&#245;es - Abordagem 2</title><defs/><g><text fill="#000000" font-family="sans-serif" font-size="14" font-weight="bold" lengthAdjust="spacing" textLength="329.1162" x="239.2959" y="30.1074">Extra&#231;&#227;o de Entidades e Rela&#231;&#245;es - Abordagem 2</text><rect fill="#FFFFFF" height="461.7832" style="stroke:#181818;stroke-width:1.0;" width="10" x="32.1758" y="133.2422"/><rect fill="#FFFFFF" height="429.4922" style="stroke:#181818;stroke-width:1.0;" width="10" x="196.6865" y="156.5332"/><rect fill="#FFFFFF" height="31.291" style="stroke:#181818;stroke-width:1.0;" width="10" x="746.8599" y="258.4063"/><rect fill="#FFFFFF" height="31.291" style="stroke:#181818;stroke-width:1.0;" width="10" x="746.8599" y="365.2793"/><rect fill="#FFFFFF" height="31.291" style="stroke:#181818;stroke-width:1.0;" width="10" x="746.8599" y="472.1523"/><rect fill="none" height="339.9102" style="stroke:#000000;stroke-width:1.5;" width="639.3076" x="159.4004" y="215.8242"/><line style="stroke:#181818;stroke-width:0.5;stroke-dasharray:5.0,5.0;" x1="37" x2="37" y1="123.2422" y2="604.0254"/><line style="stroke:#181818;stroke-width:0.5;stroke-dasharray:5.0,5.0;" x1="201.4004" x2="201.4004" y1="123.2422" y2="604.0254"/><line style="stroke:#181818;stroke-width:0.5;stroke-dasharray:5.0,5.0;" x1="751.0117" x2="751.0117" y1="123.2422" y2="604.0254"/><text fill="#000000" font-family="sans-serif" font-size="14" lengthAdjust="spacing" textLength="58.3516" x="5" y="119.7285">Utilizador</text><ellipse cx="37.1758" cy="53.1211" fill="#E2E2F0" rx="8" ry="8" style="stroke:#181818;stroke-width:0.5;"/><path d="M37.1758,61.1211 L37.1758,88.1211 M24.1758,69.1211 L50.1758,69.1211 M37.1758,88.1211 L24.1758,103.1211 M37.1758,88.1211 L50.1758,103.1211 " fill="none" style="stroke:#181818;stroke-width:0.5;"/><text fill="#000000" font-family="sans-serif" font-size="14" lengthAdjust="spacing" textLength="58.3516" x="5" y="618.1328">Utilizador</text><ellipse cx="37.1758" cy="630.1465" fill="#E2E2F0" rx="8" ry="8" style="stroke:#181818;stroke-width:0.5;"/><path d="M37.1758,638.1465 L37.1758,665.1465 M24.1758,646.1465 L50.1758,646.1465 M37.1758,665.1465 L24.1758,680.1465 M37.1758,665.1465 L50.1758,680.1465 " fill="none" style="stroke:#181818;stroke-width:0.5;"/><rect fill="#E2E2F0" height="32.6211" rx="2.5" ry="2.5" style="stroke:#181818;stroke-width:0.5;" width="64.5723" x="169.4004" y="89.6211"/><text fill="#000000" font-family="sans-serif" font-size="14" lengthAdjust="spacing" textLength="50.5723" x="176.4004" y="111.7285">Sistema</text><rect fill="#E2E2F0" height="32.6211" rx="2.5" ry="2.5" style="stroke:#181818;stroke-width:0.5;" width="64.5723" x="169.4004" y="603.0254"/><text fill="#000000" font-family="sans-serif" font-size="14" lengthAdjust="spacing" textLength="50.5723" x="176.4004" y="625.1328">Sistema</text><text fill="#000000" font-family="sans-serif" font-size="14" lengthAdjust="spacing" textLength="67.6963" x="715.0117" y="119.7285">Azure/LLM</text><ellipse cx="751.8599" cy="88.6211" fill="#E2E2F0" rx="12" ry="12" style="stroke:#181818;stroke-width:0.5;"/><line style="stroke:#181818;stroke-width:0.5;" x1="739.8599" x2="763.8599" y1="102.6211" y2="102.6211"/><text fill="#000000" font-family="sans-serif" font-size="14" lengthAdjust="spacing" textLength="67.6963" x="715.0117" y="618.1328">Azure/LLM</text><ellipse cx="751.8599" cy="637.6465" fill="#E2E2F0" rx="12" ry="12" style="stroke:#181818;stroke-width:0.5;"/><line style="stroke:#181818;stroke-width:0.5;" x1="739.8599" x2="763.8599" y1="651.6465" y2="651.6465"/><rect fill="#FFFFFF" height="461.7832" style="stroke:#181818;stroke-width:1.0;" width="10" x="32.1758" y="133.2422"/><rect fill="#FFFFFF" height="429.4922" style="stroke:#181818;stroke-width:1.0;" width="10" x="196.6865" y="156.5332"/><rect fill="#FFFFFF" height="31.291" style="stroke:#181818;stroke-width:1.0;" width="10" x="746.8599" y="258.4063"/><rect fill="#FFFFFF" height="31.291" style="stroke:#181818;stroke-width:1.0;" width="10" x="746.8599" y="365.2793"/><rect fill="#FFFFFF" height="31.291" style="stroke:#181818;stroke-width:1.0;" width="10" x="746.8599" y="472.1523"/><polygon fill="#181818" points="184.6865,152.5332,194.6865,156.5332,184.6865,160.5332,188.6865,156.5332" style="stroke:#181818;stroke-width:1.0;"/><line style="stroke:#181818;stroke-width:1.0;" x1="42.1758" x2="190.6865" y1="156.5332" y2="156.5332"/><text fill="#000000" font-family="sans-serif" font-size="13" font-weight="bold" lengthAdjust="spacing" textLength="7.23" x="49.1758" y="151.2705">1</text><text fill="#000000" font-family="sans-serif" font-size="13" lengthAdjust="spacing" textLength="124.2808" x="60.4058" y="151.2705">Fornece Documentos</text><line style="stroke:#181818;stroke-width:1.0;stroke-dasharray:2.0,2.0;" x1="206.6865" x2="248.6865" y1="187.8242" y2="187.8242"/><line style="stroke:#181818;stroke-width:1.0;stroke-dasharray:2.0,2.0;" x1="248.6865" x2="248.6865" y1="187.8242" y2="200.8242"/><line style="stroke:#181818;stroke-width:1.0;stroke-dasharray:2.0,2.0;" x1="207.6865" x2="248.6865" y1="200.8242" y2="200.8242"/><polygon fill="#181818" points="217.6865,196.8242,207.6865,200.8242,217.6865,204.8242,213.6865,200.8242" style="stroke:#181818;stroke-width:1.0;"/><text fill="#000000" font-family="sans-serif" font-size="13" font-weight="bold" lengthAdjust="spacing" textLength="7.23" x="213.6865" y="182.5615">2</text><text fill="#000000" font-family="sans-serif" font-size="13" lengthAdjust="spacing" textLength="252.1733" x="224.9165" y="182.5615">Divide documentos em chunks (tamanho X)</text><path d="M159.4004,215.8242 L231.835,215.8242 L231.835,225.1152 L221.835,235.1152 L159.4004,235.1152 L159.4004,215.8242 " fill="#EEEEEE" style="stroke:#000000;stroke-width:1.5;"/><rect fill="none" height="339.9102" style="stroke:#000000;stroke-width:1.5;" width="639.3076" x="159.4004" y="215.8242"/><text fill="#000000" font-family="sans-serif" font-size="13" font-weight="bold" lengthAdjust="spacing" textLength="27.4346" x="174.4004" y="230.8525">loop</text><text fill="#000000" font-family="sans-serif" font-size="11" font-weight="bold" lengthAdjust="spacing" textLength="209.0645" x="246.835" y="229.6943">[at&#233; todos os chunks serem analisados]</text><polygon fill="#181818" points="734.8599,254.4063,744.8599,258.4063,734.8599,262.4063,738.8599,258.4063" style="stroke:#181818;stroke-width:1.0;"/><line style="stroke:#181818;stroke-width:1.0;" x1="206.6865" x2="740.8599" y1="258.4063" y2="258.4063"/><text fill="#000000" font-family="sans-serif" font-size="13" font-weight="bold" lengthAdjust="spacing" textLength="7.23" x="213.6865" y="253.1436">3</text><text fill="#000000" font-family="sans-serif" font-size="13" lengthAdjust="spacing" textLength="355.5259" x="224.9165" y="253.1436">Fornece chunk, instru&#231;&#245;es e contexto de respostas anteriores</text><polygon fill="#181818" points="217.6865,285.6973,207.6865,289.6973,217.6865,293.6973,213.6865,289.6973" style="stroke:#181818;stroke-width:1.0;"/><line style="stroke:#181818;stroke-width:1.0;stroke-dasharray:2.0,2.0;" x1="211.6865" x2="750.8599" y1="289.6973" y2="289.6973"/><text fill="#000000" font-family="sans-serif" font-size="13" font-weight="bold" lengthAdjust="spacing" textLength="7.23" x="223.6865" y="284.4346">4</text><text fill="#000000" font-family="sans-serif" font-size="13" lengthAdjust="spacing" textLength="151.7598" x="234.9165" y="284.4346">Devolve lista de entidades</text><line style="stroke:#181818;stroke-width:1.0;" x1="206.6865" x2="248.6865" y1="320.9883" y2="320.9883"/><line style="stroke:#181818;stroke-width:1.0;" x1="248.6865" x2="248.6865" y1="320.9883" y2="333.9883"/><line style="stroke:#181818;stroke-width:1.0;" x1="207.6865" x2="248.6865" y1="333.9883" y2="333.9883"/><polygon fill="#181818" points="217.6865,329.9883,207.6865,333.9883,217.6865,337.9883,213.6865,333.9883" style="stroke:#181818;stroke-width:1.0;"/><text fill="#000000" font-family="sans-serif" font-size="13" font-weight="bold" lengthAdjust="spacing" textLength="7.23" x="213.6865" y="315.7256">5</text><text fill="#000000" font-family="sans-serif" font-size="13" lengthAdjust="spacing" textLength="225.4878" x="224.9165" y="315.7256">Adiciona lista de entidades ao contexto</text><polygon fill="#181818" points="734.8599,361.2793,744.8599,365.2793,734.8599,369.2793,738.8599,365.2793" style="stroke:#181818;stroke-width:1.0;"/><line style="stroke:#181818;stroke-width:1.0;" x1="206.6865" x2="740.8599" y1="365.2793" y2="365.2793"/><text fill="#000000" font-family="sans-serif" font-size="13" font-weight="bold" lengthAdjust="spacing" textLength="7.23" x="213.6865" y="360.0166">6</text><text fill="#000000" font-family="sans-serif" font-size="13" lengthAdjust="spacing" textLength="355.5259" x="224.9165" y="360.0166">Fornece chunk, instru&#231;&#245;es e contexto de respostas anteriores</text><polygon fill="#181818" points="217.6865,392.5703,207.6865,396.5703,217.6865,400.5703,213.6865,396.5703" style="stroke:#181818;stroke-width:1.0;"/><line style="stroke:#181818;stroke-width:1.0;stroke-dasharray:2.0,2.0;" x1="211.6865" x2="750.8599" y1="396.5703" y2="396.5703"/><text fill="#000000" font-family="sans-serif" font-size="13" font-weight="bold" lengthAdjust="spacing" textLength="7.23" x="223.6865" y="391.3076">7</text><text fill="#000000" font-family="sans-serif" font-size="13" lengthAdjust="spacing" textLength="144.5171" x="234.9165" y="391.3076">Devolve lista de rela&#231;&#245;es</text><line style="stroke:#181818;stroke-width:1.0;" x1="206.6865" x2="248.6865" y1="427.8613" y2="427.8613"/><line style="stroke:#181818;stroke-width:1.0;" x1="248.6865" x2="248.6865" y1="427.8613" y2="440.8613"/><line style="stroke:#181818;stroke-width:1.0;" x1="207.6865" x2="248.6865" y1="440.8613" y2="440.8613"/><polygon fill="#181818" points="217.6865,436.8613,207.6865,440.8613,217.6865,444.8613,213.6865,440.8613" style="stroke:#181818;stroke-width:1.0;"/><text fill="#000000" font-family="sans-serif" font-size="13" font-weight="bold" lengthAdjust="spacing" textLength="7.23" x="213.6865" y="422.5986">8</text><text fill="#000000" font-family="sans-serif" font-size="13" lengthAdjust="spacing" textLength="218.2451" x="224.9165" y="422.5986">Adiciona lista de rela&#231;&#245;es ao contexto</text><polygon fill="#181818" points="734.8599,468.1523,744.8599,472.1523,734.8599,476.1523,738.8599,472.1523" style="stroke:#181818;stroke-width:1.0;"/><line style="stroke:#181818;stroke-width:1.0;" x1="206.6865" x2="740.8599" y1="472.1523" y2="472.1523"/><text fill="#000000" font-family="sans-serif" font-size="13" font-weight="bold" lengthAdjust="spacing" textLength="7.23" x="213.6865" y="466.8896">9</text><text fill="#000000" font-family="sans-serif" font-size="13" lengthAdjust="spacing" textLength="355.5259" x="224.9165" y="466.8896">Fornece chunk, instru&#231;&#245;es e contexto de respostas anteriores</text><polygon fill="#181818" points="217.6865,499.4434,207.6865,503.4434,217.6865,507.4434,213.6865,503.4434" style="stroke:#181818;stroke-width:1.0;"/><line style="stroke:#181818;stroke-width:1.0;stroke-dasharray:2.0,2.0;" x1="211.6865" x2="750.8599" y1="503.4434" y2="503.4434"/><text fill="#000000" font-family="sans-serif" font-size="13" font-weight="bold" lengthAdjust="spacing" textLength="14.46" x="223.6865" y="498.1807">10</text><text fill="#000000" font-family="sans-serif" font-size="13" lengthAdjust="spacing" textLength="497.7134" x="242.1465" y="498.1807">Devolve lista de entidades e rela&#231;&#245;es filtrada (sem repeti&#231;&#245;es ou equivalentes "maus")</text><line style="stroke:#181818;stroke-width:1.0;" x1="206.6865" x2="248.6865" y1="534.7344" y2="534.7344"/><line style="stroke:#181818;stroke-width:1.0;" x1="248.6865" x2="248.6865" y1="534.7344" y2="547.7344"/><line style="stroke:#181818;stroke-width:1.0;" x1="207.6865" x2="248.6865" y1="547.7344" y2="547.7344"/><polygon fill="#181818" points="217.6865,543.7344,207.6865,547.7344,217.6865,551.7344,213.6865,547.7344" style="stroke:#181818;stroke-width:1.0;"/><text fill="#000000" font-family="sans-serif" font-size="13" font-weight="bold" lengthAdjust="spacing" textLength="14.46" x="213.6865" y="529.4717">11</text><text fill="#000000" font-family="sans-serif" font-size="13" lengthAdjust="spacing" textLength="333.874" x="232.1465" y="529.4717">Substitui lista de entidades e lista de rela&#231;&#245;es no contexto</text><polygon fill="#181818" points="53.1758,582.0254,43.1758,586.0254,53.1758,590.0254,49.1758,586.0254" style="stroke:#181818;stroke-width:1.0;"/><line style="stroke:#181818;stroke-width:1.0;stroke-dasharray:2.0,2.0;" x1="47.1758" x2="200.6865" y1="586.0254" y2="586.0254"/><text fill="#000000" font-family="sans-serif" font-size="13" font-weight="bold" lengthAdjust="spacing" textLength="14.46" x="59.1758" y="580.7627">12</text><text fill="#000000" font-family="sans-serif" font-size="13" lengthAdjust="spacing" textLength="73.6963" x="77.6357" y="580.7627">Confirma&#231;&#227;o</text><!--SRC=[pLJ1RjGm4BtxAqQvR2knGkBOGwM5XLEvK25ndSHJQk7OmHwlslqT3eWFu0lsntXsGxgKFI1EZI8hzhoPD_F64tNgXTxUQUB3zyEtI1QxeCwobKn27yHNmqzirhJfOxByMKPwPRXe36Ni9Hcp6JGc-gZEkprRV7Acac6PEAaRtCH1wTfbbP6hBTzd8o3HU-es-vBavTNL-wvQl1_Doh9oprceUrrNPBH5rDm0jYTZU52tOvK7ahhG-h96fGjw5rEG0IvnA2D8OZx2LuYfo_e1Vq5RjtCWi0kQKDrmMyANJ6VA8uVRI9_EZOzn8jR33zA8N0ZlZ08xN3YmTxccQGXFuxYivHobr1nUa0jPKvb5nMaCAdVQb4-IfvWLTK8nIIxYeCLRAgW2rOCQURqKlPLTz3jOeJ7NGFAxXGrivI__ES6cmSQYHp7m2NVYk2HO_Pv5SMcva_zNtQF_q_BeUJMF_iZrndbCgMKwoxXmIIPHDvjY8VbQGEBXYtqtSidT-R_8SrtwZ4aixZJ_AT72aMYOOqjrE8nPBJosDwkP0_EA5gIHzu8MuEtdaRPjLbQmFohn9eOR1spx4y4cnn6NkMtp_XHyXAr_5_CB]--></g></svg>