<svg xmlns="http://www.w3.org/2000/svg" xmlns:xlink="http://www.w3.org/1999/xlink" contentStyleType="text/css" height="473px" preserveAspectRatio="none" style="width:650px;height:473px;background:#FFFFFF;" version="1.1" viewBox="0 0 650 473" width="650px" zoomAndPan="magnify"><title>Extra&#231;&#227;o de Entidades e Rela&#231;&#245;es - Abordagem 1</title><defs/><g><text fill="#000000" font-family="sans-serif" font-size="14" font-weight="bold" lengthAdjust="spacing" textLength="329.1162" x="162.0872" y="30.1074">Extra&#231;&#227;o de Entidades e Rela&#231;&#245;es - Abordagem 1</text><rect fill="#FFFFFF" height="248.0371" style="stroke:#181818;stroke-width:1.0;" width="10" x="32.1758" y="133.2422"/><rect fill="#FFFFFF" height="215.7461" style="stroke:#181818;stroke-width:1.0;" width="10" x="196.6865" y="156.5332"/><rect fill="#FFFFFF" height="31.291" style="stroke:#181818;stroke-width:1.0;" width="10" x="592.4424" y="258.4063"/><rect fill="none" height="126.1641" style="stroke:#000000;stroke-width:1.5;" width="484.8901" x="159.4004" y="215.8242"/><line style="stroke:#181818;stroke-width:0.5;stroke-dasharray:5.0,5.0;" x1="37" x2="37" y1="123.2422" y2="390.2793"/><line style="stroke:#181818;stroke-width:0.5;stroke-dasharray:5.0,5.0;" x1="201.4004" x2="201.4004" y1="123.2422" y2="390.2793"/><line style="stroke:#181818;stroke-width:0.5;stroke-dasharray:5.0,5.0;" x1="596.5942" x2="596.5942" y1="123.2422" y2="390.2793"/><text fill="#000000" font-family="sans-serif" font-size="14" lengthAdjust="spacing" textLength="58.3516" x="5" y="119.7285">Utilizador</text><ellipse cx="37.1758" cy="53.1211" fill="#E2E2F0" rx="8" ry="8" style="stroke:#181818;stroke-width:0.5;"/><path d="M37.1758,61.1211 L37.1758,88.1211 M24.1758,69.1211 L50.1758,69.1211 M37.1758,88.1211 L24.1758,103.1211 M37.1758,88.1211 L50.1758,103.1211 " fill="none" style="stroke:#181818;stroke-width:0.5;"/><text fill="#000000" font-family="sans-serif" font-size="14" lengthAdjust="spacing" textLength="58.3516" x="5" y="404.3867">Utilizador</text><ellipse cx="37.1758" cy="416.4004" fill="#E2E2F0" rx="8" ry="8" style="stroke:#181818;stroke-width:0.5;"/><path d="M37.1758,424.4004 L37.1758,451.4004 M24.1758,432.4004 L50.1758,432.4004 M37.1758,451.4004 L24.1758,466.4004 M37.1758,451.4004 L50.1758,466.4004 " fill="none" style="stroke:#181818;stroke-width:0.5;"/><rect fill="#E2E2F0" height="32.6211" rx="2.5" ry="2.5" style="stroke:#181818;stroke-width:0.5;" width="64.5723" x="169.4004" y="89.6211"/><text fill="#000000" font-family="sans-serif" font-size="14" lengthAdjust="spacing" textLength="50.5723" x="176.4004" y="111.7285">Sistema</text><rect fill="#E2E2F0" height="32.6211" rx="2.5" ry="2.5" style="stroke:#181818;stroke-width:0.5;" width="64.5723" x="169.4004" y="389.2793"/><text fill="#000000" font-family="sans-serif" font-size="14" lengthAdjust="spacing" textLength="50.5723" x="176.4004" y="411.3867">Sistema</text><text fill="#000000" font-family="sans-serif" font-size="14" lengthAdjust="spacing" textLength="67.6963" x="560.5942" y="119.7285">Azure/LLM</text><ellipse cx="597.4424" cy="88.6211" fill="#E2E2F0" rx="12" ry="12" style="stroke:#181818;stroke-width:0.5;"/><line style="stroke:#181818;stroke-width:0.5;" x1="585.4424" x2="609.4424" y1="102.6211" y2="102.6211"/><text fill="#000000" font-family="sans-serif" font-size="14" lengthAdjust="spacing" textLength="67.6963" x="560.5942" y="404.3867">Azure/LLM</text><ellipse cx="597.4424" cy="423.9004" fill="#E2E2F0" rx="12" ry="12" style="stroke:#181818;stroke-width:0.5;"/><line style="stroke:#181818;stroke-width:0.5;" x1="585.4424" x2="609.4424" y1="437.9004" y2="437.9004"/><rect fill="#FFFFFF" height="248.0371" style="stroke:#181818;stroke-width:1.0;" width="10" x="32.1758" y="133.2422"/><rect fill="#FFFFFF" height="215.7461" style="stroke:#181818;stroke-width:1.0;" width="10" x="196.6865" y="156.5332"/><rect fill="#FFFFFF" height="31.291" style="stroke:#181818;stroke-width:1.0;" width="10" x="592.4424" y="258.4063"/><polygon fill="#181818" points="184.6865,152.5332,194.6865,156.5332,184.6865,160.5332,188.6865,156.5332" style="stroke:#181818;stroke-width:1.0;"/><line style="stroke:#181818;stroke-width:1.0;" x1="42.1758" x2="190.6865" y1="156.5332" y2="156.5332"/><text fill="#000000" font-family="sans-serif" font-size="13" font-weight="bold" lengthAdjust="spacing" textLength="7.23" x="49.1758" y="151.2705">1</text><text fill="#000000" font-family="sans-serif" font-size="13" lengthAdjust="spacing" textLength="124.2808" x="60.4058" y="151.2705">Fornece Documentos</text><line style="stroke:#181818;stroke-width:1.0;stroke-dasharray:2.0,2.0;" x1="206.6865" x2="248.6865" y1="187.8242" y2="187.8242"/><line style="stroke:#181818;stroke-width:1.0;stroke-dasharray:2.0,2.0;" x1="248.6865" x2="248.6865" y1="187.8242" y2="200.8242"/><line style="stroke:#181818;stroke-width:1.0;stroke-dasharray:2.0,2.0;" x1="207.6865" x2="248.6865" y1="200.8242" y2="200.8242"/><polygon fill="#181818" points="217.6865,196.8242,207.6865,200.8242,217.6865,204.8242,213.6865,200.8242" style="stroke:#181818;stroke-width:1.0;"/><text fill="#000000" font-family="sans-serif" font-size="13" font-weight="bold" lengthAdjust="spacing" textLength="7.23" x="213.6865" y="182.5615">2</text><text fill="#000000" font-family="sans-serif" font-size="13" lengthAdjust="spacing" textLength="252.1733" x="224.9165" y="182.5615">Divide documentos em chunks (tamanho X)</text><path d="M159.4004,215.8242 L231.835,215.8242 L231.835,225.1152 L221.835,235.1152 L159.4004,235.1152 L159.4004,215.8242 " fill="#EEEEEE" style="stroke:#000000;stroke-width:1.5;"/><rect fill="none" height="126.1641" style="stroke:#000000;stroke-width:1.5;" width="484.8901" x="159.4004" y="215.8242"/><text fill="#000000" font-family="sans-serif" font-size="13" font-weight="bold" lengthAdjust="spacing" textLength="27.4346" x="174.4004" y="230.8525">loop</text><text fill="#000000" font-family="sans-serif" font-size="11" font-weight="bold" lengthAdjust="spacing" textLength="209.0645" x="246.835" y="229.6943">[at&#233; todos os chunks serem analisados]</text><polygon fill="#181818" points="580.4424,254.4063,590.4424,258.4063,580.4424,262.4063,584.4424,258.4063" style="stroke:#181818;stroke-width:1.0;"/><line style="stroke:#181818;stroke-width:1.0;" x1="206.6865" x2="586.4424" y1="258.4063" y2="258.4063"/><text fill="#000000" font-family="sans-serif" font-size="13" font-weight="bold" lengthAdjust="spacing" textLength="7.23" x="213.6865" y="253.1436">3</text><text fill="#000000" font-family="sans-serif" font-size="13" lengthAdjust="spacing" textLength="355.5259" x="224.9165" y="253.1436">Fornece chunk, instru&#231;&#245;es e contexto de respostas anteriores</text><polygon fill="#181818" points="217.6865,285.6973,207.6865,289.6973,217.6865,293.6973,213.6865,289.6973" style="stroke:#181818;stroke-width:1.0;"/><line style="stroke:#181818;stroke-width:1.0;stroke-dasharray:2.0,2.0;" x1="211.6865" x2="596.4424" y1="289.6973" y2="289.6973"/><text fill="#000000" font-family="sans-serif" font-size="13" font-weight="bold" lengthAdjust="spacing" textLength="7.23" x="223.6865" y="284.4346">4</text><text fill="#000000" font-family="sans-serif" font-size="13" lengthAdjust="spacing" textLength="262.2915" x="234.9165" y="284.4346">Devolve lista de entidades e rela&#231;&#245;es (JSON)</text><line style="stroke:#181818;stroke-width:1.0;" x1="206.6865" x2="248.6865" y1="320.9883" y2="320.9883"/><line style="stroke:#181818;stroke-width:1.0;" x1="248.6865" x2="248.6865" y1="320.9883" y2="333.9883"/><line style="stroke:#181818;stroke-width:1.0;" x1="207.6865" x2="248.6865" y1="333.9883" y2="333.9883"/><polygon fill="#181818" points="217.6865,329.9883,207.6865,333.9883,217.6865,337.9883,213.6865,333.9883" style="stroke:#181818;stroke-width:1.0;"/><text fill="#000000" font-family="sans-serif" font-size="13" font-weight="bold" lengthAdjust="spacing" textLength="7.23" x="213.6865" y="315.7256">5</text><text fill="#000000" font-family="sans-serif" font-size="13" lengthAdjust="spacing" textLength="174.167" x="224.9165" y="315.7256">Adiciona resposta ao contexto</text><polygon fill="#181818" points="53.1758,368.2793,43.1758,372.2793,53.1758,376.2793,49.1758,372.2793" style="stroke:#181818;stroke-width:1.0;"/><line style="stroke:#181818;stroke-width:1.0;stroke-dasharray:2.0,2.0;" x1="47.1758" x2="200.6865" y1="372.2793" y2="372.2793"/><text fill="#000000" font-family="sans-serif" font-size="13" font-weight="bold" lengthAdjust="spacing" textLength="7.23" x="59.1758" y="367.0166">6</text><text fill="#000000" font-family="sans-serif" font-size="13" lengthAdjust="spacing" textLength="73.6963" x="70.4058" y="367.0166">Confirma&#231;&#227;o</text><!--SRC=[NL91JiCm4Bpx5QjUsafKY6iFbGg50oeWKI5ntSGBjKYyaRs9sdw70-81lA0VOvr6QK2AhDWxdfsTiJWf26vt4l3uTVnaiBhpuYnQYa3mJ4Kg_EXc1ikCWyLtAk7AO2tiwpAZOCmo5mxm8gvm1xJwYn7gg9KAWxZSLUW5DYuAbPXgSHyDQHFPmsXvg0DThjSFerGfYjACBGfc60b6rsbLHIjbZIt0Pc0Cvk8Q53erIGlC5eaLvd37mLEkLpYlIst2SO1F49EMsGa_XvLhd3QmFHfqkdnR-uy84y4I_PRXTMeAvWfGZjyWh5f0lmwbtVKAUYnSJ39F_8iqoa1E2xu0vwE4kZDKJzaBxQHrFL2iE8hEg6vHSAm7P-N9cCGuwmTTKSD5enNr5HC13M8BvzWczvkdnwcnz8Uh4zbwiBIQ4Nli9G1oBqs3if2cDsRSCzZCZ3i63KGPGea7KWRziYupsvenrlfPymtxDwVOzgbfZOQCVJ1jeF_10snwFkON]--></g></svg>